<svg width="1200" height="1200" version="1.1" xmlns="http://www.w3.org/2000/svg" desc="Created with imagetracer.js version 1.2.6" ><path fill="rgb(23,96,100)" stroke="rgb(23,96,100)" stroke-width="1" opacity="1" d="M 0 0 L 1200 0 L 1200 1200 L 0 1200 L 0 0 Z M 119 405 L 106 408 L 88 418 Q 79 425 73 436 L 68 448 L 66 459 L 66 475 L 68 486 Q 72 501 82 511 L 100 523 L 111 527 L 122 528 L 123 529 L 139 529 L 140 528 L 154 527 L 171 522 L 179 518 L 179 456 L 133 456 L 133 480 L 154 480 L 154 499 L 145 503 L 134 504 L 133 505 L 118 503 L 108 498 L 98 488 L 95 481 L 93 471 L 94 457 L 102 441 Q 110 432 124 429 Q 148 427 159 440 L 176 422 L 176 420 Q 168 410 154 407 L 143 405 L 119 405 Z M 357 405 L 341 409 Q 329 413 322 421 Q 308 433 304 455 L 304 479 L 305 484 Q 308 497 316 507 L 332 520 L 349 527 L 360 528 L 361 529 L 375 529 L 376 528 L 387 527 Q 402 523 413 513 Q 422 504 427 492 L 431 475 L 431 459 L 429 448 Q 425 435 418 427 Q 408 414 392 408 L 379 405 L 357 405 Z M 202 408 L 202 526 L 228 526 L 228 480 L 229 479 L 241 479 L 265 526 L 297 526 L 267 477 L 273 475 L 283 469 Q 290 463 292 452 Q 294 431 286 422 L 278 414 L 269 410 L 260 408 L 202 408 Z M 449 408 L 449 526 L 533 526 L 533 502 L 476 502 L 476 478 L 527 478 L 527 454 L 476 454 L 476 432 L 530 432 L 530 409 L 530 408 L 449 408 Z M 553 408 L 553 526 L 554 526 L 580 526 L 581 443 L 630 525 L 632 526 L 665 526 L 665 409 L 665 408 L 639 408 L 639 489 L 591 411 L 589 408 L 553 408 Z M 690 408 L 690 526 L 773 526 L 773 526 L 773 502 L 718 502 L 716 501 L 716 478 L 767 478 L 767 454 L 718 454 L 716 453 L 716 432 L 770 432 L 770 409 L 770 408 L 690 408 Z M 587 538 L 570 542 L 554 551 Q 537 564 532 590 L 532 611 Q 534 612 533 617 Q 537 630 544 640 Q 552 650 565 656 L 576 660 L 587 662 L 605 662 L 616 660 Q 629 656 639 648 Q 647 641 652 632 L 657 620 L 659 610 L 659 591 L 657 581 Q 653 568 646 560 Q 636 548 622 542 L 605 538 L 587 538 Z M 829 538 L 813 542 L 795 553 Q 784 562 779 576 L 775 593 L 775 608 L 777 619 Q 781 633 790 643 L 803 653 L 813 658 L 829 662 L 850 662 Q 851 660 856 661 Q 870 658 880 650 L 895 633 L 901 618 L 902 607 L 903 606 L 903 596 L 902 595 L 901 583 Q 898 570 891 562 Q 882 549 868 543 L 850 538 L 829 538 Z M 968 538 L 952 542 L 937 550 Q 919 563 914 590 L 914 611 L 915 616 Q 918 630 926 640 Q 934 650 947 656 L 968 662 L 988 662 L 998 660 Q 1011 656 1021 648 Q 1037 635 1041 611 Q 1044 576 1028 560 Q 1019 548 1004 542 L 988 538 L 968 538 Z M 72 541 L 72 659 L 73 659 L 99 659 L 100 572 L 128 657 L 129 659 L 149 659 L 179 571 L 180 571 L 180 659 L 181 659 L 206 659 L 206 541 L 166 541 L 140 617 L 136 611 L 113 543 L 112 541 L 72 541 Z M 231 541 L 231 659 L 314 659 L 314 635 L 257 635 L 257 611 L 308 611 L 308 587 L 257 587 L 257 565 L 311 565 L 311 542 L 311 541 L 231 541 Z M 324 541 L 324 564 L 357 564 L 357 565 L 357 659 L 384 659 L 384 659 L 384 564 L 417 564 L 417 542 L 417 541 L 324 541 Z M 430 541 L 430 659 L 456 659 L 456 613 L 457 612 L 469 612 L 493 659 L 525 659 L 495 610 L 509 604 Q 517 597 520 586 Q 523 564 514 555 L 502 545 L 486 541 L 430 541 Z M 677 541 L 677 659 L 703 659 L 703 613 L 732 613 Q 733 611 739 612 L 753 606 Q 762 600 765 587 L 765 568 L 759 555 Q 751 545 738 542 Q 732 544 731 541 L 677 541 Z M 1060 541 L 1060 659 L 1134 659 L 1134 635 L 1086 635 L 1086 542 L 1086 541 L 1060 541 Z M 336 671 L 335 672 L 324 673 L 313 677 L 299 686 L 286 702 L 281 714 L 279 724 L 279 743 Q 281 744 280 749 Q 283 763 291 773 Q 304 791 332 795 L 357 795 Q 358 793 364 794 L 380 790 L 392 784 L 392 722 L 346 722 L 346 746 L 367 746 L 367 765 L 362 768 L 351 771 L 332 770 L 319 763 L 312 756 L 308 748 L 306 739 Q 305 719 313 710 L 324 700 L 334 696 Q 339 698 341 695 L 353 696 L 360 698 L 372 706 L 390 687 Q 382 678 369 674 L 360 672 L 352 672 L 351 671 L 336 671 Z M 515 671 L 494 676 L 478 686 Q 462 699 458 723 L 458 744 Q 460 745 459 750 Q 463 763 470 773 L 487 787 L 501 793 L 511 795 L 533 795 Q 534 793 539 794 Q 553 791 563 783 Q 580 770 585 744 L 585 724 L 583 714 Q 579 701 572 693 Q 563 682 550 676 L 529 671 L 515 671 Z M 72 674 L 72 792 L 99 792 L 99 746 L 100 745 L 111 745 L 135 792 L 167 792 L 140 748 L 138 742 L 142 742 L 150 738 L 159 728 L 163 713 L 162 700 L 156 688 Q 148 677 133 675 Q 127 677 126 674 L 72 674 Z M 181 674 L 181 792 L 265 792 L 265 768 L 207 768 L 207 746 L 209 744 L 259 744 L 259 720 L 207 720 L 207 700 L 209 698 L 262 698 L 262 675 L 262 674 L 181 674 Z M 414 674 L 414 792 L 415 792 L 441 792 L 441 675 L 441 674 L 414 674 Z M 636 678 L 614 729 L 615 730 L 627 730 L 630 721 L 632 719 L 650 719 L 652 722 L 654 729 L 656 730 L 668 730 L 646 680 L 646 678 L 636 678 Z M 675 678 L 673 680 L 673 730 L 685 730 L 685 711 L 686 710 L 691 710 L 702 730 L 715 730 L 702 709 L 709 706 L 713 700 Q 714 691 712 687 L 703 679 Q 698 680 697 678 L 675 678 Z M 721 678 L 721 730 L 722 730 L 732 730 L 733 694 L 754 729 L 755 730 L 770 730 L 770 679 L 770 678 L 759 678 L 759 714 L 737 680 L 737 678 L 721 678 Z M 781 678 L 781 730 L 792 730 L 792 708 L 814 708 L 814 730 L 826 730 L 826 730 L 826 678 L 814 678 L 814 698 L 792 698 L 792 678 L 781 678 Z M 837 678 L 837 730 L 873 730 L 873 730 L 873 720 L 850 720 L 848 719 L 848 711 L 850 709 L 871 709 L 871 699 L 850 699 L 848 698 L 848 689 L 872 689 L 872 679 L 872 678 L 837 678 Z M 884 678 L 882 680 L 882 730 L 883 730 L 894 730 L 895 693 L 906 729 L 908 730 L 916 730 Q 923 714 928 695 L 929 695 L 929 730 L 930 730 L 941 730 L 941 679 L 941 678 L 925 678 L 912 711 L 900 680 L 900 678 L 884 678 Z M 875 740 Q 873 742 869 741 L 861 745 Q 853 750 850 761 Q 848 778 855 786 Q 861 792 872 795 L 886 795 L 897 792 L 900 790 L 900 763 L 879 763 L 879 774 L 888 774 L 888 782 L 884 784 Q 874 785 869 782 L 862 773 Q 861 763 864 759 Q 867 753 875 751 Q 886 750 891 756 L 898 747 Q 894 742 888 741 L 875 740 Z M 619 742 L 619 794 L 620 794 L 631 794 L 632 758 L 652 793 L 654 794 L 668 794 L 668 743 L 668 742 L 657 742 L 657 776 L 637 745 L 635 742 L 619 742 Z M 679 742 L 679 794 L 680 794 L 690 794 L 690 743 L 690 742 L 679 742 Z M 716 742 L 716 779 L 714 784 L 712 785 L 708 784 L 706 780 L 697 782 L 695 784 L 698 791 L 706 795 Q 717 797 723 792 L 727 785 L 727 743 L 727 742 L 716 742 Z M 737 742 L 737 794 L 738 794 L 749 794 L 750 757 L 761 793 L 763 794 L 771 794 L 783 758 L 784 758 L 784 794 L 785 794 L 796 794 L 796 742 L 778 742 L 767 775 L 755 744 L 755 742 L 737 742 Z M 807 742 L 807 794 L 843 794 L 843 783 L 818 783 L 818 773 L 841 773 L 841 762 L 818 762 L 818 754 L 820 752 L 842 752 L 842 743 L 842 742 L 807 742 Z M 910 742 L 910 794 L 947 794 L 947 783 L 922 783 L 922 773 L 944 773 L 944 762 L 922 762 L 922 752 L 945 752 L 945 743 L 945 742 L 910 742 Z M 956 742 L 956 794 L 957 794 L 967 794 L 968 758 L 988 792 L 991 794 L 1005 794 L 1005 743 L 1005 742 L 993 742 L 993 776 L 973 744 L 972 742 L 956 742 Z " /><path fill="rgb(23,96,100)" stroke="rgb(23,96,100)" stroke-width="1" opacity="1" d="M 228 430 L 251.5 430 L 262 434 L 265 440.5 L 265 446.5 L 259.5 454 L 254.5 456 L 228 456 L 228 430 Z " /><path fill="rgb(23,96,100)" stroke="rgb(23,96,100)" stroke-width="1" opacity="1" d="M 456 563 L 478.5 563 L 483.5 564 L 492 570.5 Q 494.3 573.7 493 580.5 L 488.5 587 L 477.5 590 L 457.5 590 L 456 588.5 L 456 563 Z " /><path fill="rgb(23,96,100)" stroke="rgb(23,96,100)" stroke-width="1" opacity="1" d="M 703 563 L 727.5 564 Q 734 565.5 737 570.5 L 738 580.5 L 732.5 588 L 723.5 591 L 703 591 L 703 563 Z " /><path fill="rgb(23,96,100)" stroke="rgb(23,96,100)" stroke-width="1" opacity="1" d="M 685 688 Q 694.9 686.8 700 690 L 701 696.5 Q 696.4 702.1 685 700 L 685 688 Z " /><path fill="rgb(23,96,100)" stroke="rgb(23,96,100)" stroke-width="1" opacity="1" d="M 640.5 694 L 646 710 L 635.5 710 L 635 707.5 L 640.5 694 Z " /><path fill="rgb(23,96,100)" stroke="rgb(23,96,100)" stroke-width="1" opacity="1" d="M 99 696 L 124.5 697 Q 131 698.5 134 703.5 Q 136.5 707 135 714.5 L 129.5 721 L 121.5 723 L 99 723 L 99 696 Z " /><path fill="rgb(165,194,195)" stroke="rgb(165,194,195)" stroke-width="1" opacity="1" d="M 118.5 405 L 122 405.5 L 118.5 406 L 118.5 405 Z " /><path fill="rgb(165,194,195)" stroke="rgb(165,194,195)" stroke-width="1" opacity="1" d="M 138.5 405 L 143 405.5 L 138.5 406 L 138.5 405 Z " /><path fill="rgb(165,194,195)" stroke="rgb(165,194,195)" stroke-width="1" opacity="1" d="M 356.5 405 L 360 405.5 L 356.5 406 L 356.5 405 Z " /><path fill="rgb(165,194,195)" stroke="rgb(165,194,195)" stroke-width="1" opacity="1" d="M 375.5 405 L 379 405.5 L 375.5 406 L 375.5 405 Z " /><path fill="rgb(165,194,195)" stroke="rgb(165,194,195)" stroke-width="1" opacity="1" d="M 147.5 406 L 150 406.5 L 147.5 407 L 147.5 406 Z " /><path fill="rgb(165,194,195)" stroke="rgb(165,194,195)" stroke-width="1" opacity="1" d="M 255.5 408 L 260 408.5 L 255.5 409 L 255.5 408 Z " /><path fill="rgb(165,194,195)" stroke="rgb(165,194,195)" stroke-width="1" opacity="1" d="M 449.5 408 L 450 525 L 531.5 525 L 532 524.5 L 532 502.5 L 533 502.5 L 533 525.5 L 532.5 526 L 449 526 L 449.5 408 Z " /><path fill="rgb(165,194,195)" stroke="rgb(165,194,195)" stroke-width="1" opacity="1" d="M 529.5 408 L 530 432 L 476 432 L 476 453.5 L 475 453.5 L 475 432.5 L 476.5 431 L 529 431 L 529.5 408 Z " /><path fill="rgb(165,194,195)" stroke="rgb(165,194,195)" stroke-width="1" opacity="1" d="M 553.5 408 L 554 525 L 578.5 525 L 579 524.5 L 579 442.5 L 580.5 442 L 580 443.5 L 580 525.5 L 579.5 526 L 553 526 L 553.5 408 Z " /><path fill="rgb(165,194,195)" stroke="rgb(165,194,195)" stroke-width="1" opacity="1" d="M 639.5 408 L 640 488.5 L 638 489.5 L 639 488.5 L 639.5 408 Z " /><path fill="rgb(165,194,195)" stroke="rgb(165,194,195)" stroke-width="1" opacity="1" d="M 690.5 408 L 691 525 L 773 525.5 L 690 526 L 690.5 408 Z " /><path fill="rgb(165,194,195)" stroke="rgb(165,194,195)" stroke-width="1" opacity="1" d="M 96.5 412 L 95.5 414 L 96.5 412 Z " /><path fill="rgb(165,194,195)" stroke="rgb(165,194,195)" stroke-width="1" opacity="1" d="M 330.5 414 L 329.5 416 L 330.5 414 Z " /><path fill="rgb(165,194,195)" stroke="rgb(165,194,195)" stroke-width="1" opacity="1" d="M 91.5 415 L 90.5 417 L 91.5 415 Z " /><path fill="rgb(165,194,195)" stroke="rgb(165,194,195)" stroke-width="1" opacity="1" d="M 405.5 415 L 406.5 417 L 405.5 415 Z " /><path fill="rgb(165,194,195)" stroke="rgb(165,194,195)" stroke-width="1" opacity="1" d="M 172.5 416 L 173.5 418 L 172.5 416 Z " /><path fill="rgb(165,194,195)" stroke="rgb(165,194,195)" stroke-width="1" opacity="1" d="M 280.5 416 L 285.5 422 L 280.5 416 Z " /><path fill="rgb(165,194,195)" stroke="rgb(165,194,195)" stroke-width="1" opacity="1" d="M 594.5 417 L 595.5 419 L 594.5 417 Z " /><path fill="rgb(165,194,195)" stroke="rgb(165,194,195)" stroke-width="1" opacity="1" d="M 87.5 418 L 85.5 421 L 87.5 418 Z " /><path fill="rgb(165,194,195)" stroke="rgb(165,194,195)" stroke-width="1" opacity="1" d="M 409.5 418 L 411.5 421 L 409.5 418 Z " /><path fill="rgb(165,194,195)" stroke="rgb(165,194,195)" stroke-width="1" opacity="1" d="M 175.5 421 L 170.5 427 L 175.5 421 Z " /><path fill="rgb(165,194,195)" stroke="rgb(165,194,195)" stroke-width="1" opacity="1" d="M 321.5 421 L 320.5 423 L 321.5 421 Z " /><path fill="rgb(165,194,195)" stroke="rgb(165,194,195)" stroke-width="1" opacity="1" d="M 597.5 422 L 598.5 424 L 597.5 422 Z " /><path fill="rgb(165,194,195)" stroke="rgb(165,194,195)" stroke-width="1" opacity="1" d="M 82.5 423 L 79.5 427 L 82.5 423 Z " /><path fill="rgb(165,194,195)" stroke="rgb(165,194,195)" stroke-width="1" opacity="1" d="M 414.5 423 L 417.5 427 L 414.5 423 Z " /><path fill="rgb(165,194,195)" stroke="rgb(165,194,195)" stroke-width="1" opacity="1" d="M 316.5 427 L 315.5 429 L 316.5 427 Z " /><path fill="rgb(165,194,195)" stroke="rgb(165,194,195)" stroke-width="1" opacity="1" d="M 128.5 428 L 132 428.5 L 128.5 429 L 128.5 428 Z " /><path fill="rgb(165,194,195)" stroke="rgb(165,194,195)" stroke-width="1" opacity="1" d="M 77.5 429 L 76.5 431 L 77.5 429 Z " /><path fill="rgb(165,194,195)" stroke="rgb(165,194,195)" stroke-width="1" opacity="1" d="M 228.5 429 L 247 429.5 L 228.5 430 L 228.5 429 Z " /><path fill="rgb(165,194,195)" stroke="rgb(165,194,195)" stroke-width="1" opacity="1" d="M 419.5 429 L 420.5 431 L 419.5 429 Z " /><path fill="rgb(165,194,195)" stroke="rgb(165,194,195)" stroke-width="1" opacity="1" d="M 252.5 430 L 255 430.5 L 252.5 431 L 252.5 430 Z " /><path fill="rgb(165,194,195)" stroke="rgb(165,194,195)" stroke-width="1" opacity="1" d="M 717.5 431 L 770 431.5 L 717.5 432 L 717.5 431 Z " /><path fill="rgb(165,194,195)" stroke="rgb(165,194,195)" stroke-width="1" opacity="1" d="M 259.5 432 L 260.5 434 L 259.5 432 Z " /><path fill="rgb(165,194,195)" stroke="rgb(165,194,195)" stroke-width="1" opacity="1" d="M 110.5 433 L 109.5 435 L 110.5 433 Z " /><path fill="rgb(165,194,195)" stroke="rgb(165,194,195)" stroke-width="1" opacity="1" d="M 150.5 433 L 151.5 435 L 150.5 433 Z " /><path fill="rgb(165,194,195)" stroke="rgb(165,194,195)" stroke-width="1" opacity="1" d="M 164.5 433 L 158.5 440 L 164.5 433 Z " /><path fill="rgb(165,194,195)" stroke="rgb(165,194,195)" stroke-width="1" opacity="1" d="M 312.5 433 L 311.5 435 L 312.5 433 Z " /><path fill="rgb(165,194,195)" stroke="rgb(165,194,195)" stroke-width="1" opacity="1" d="M 107.5 435 L 106.5 437 L 107.5 435 Z " /><path fill="rgb(165,194,195)" stroke="rgb(165,194,195)" stroke-width="1" opacity="1" d="M 153.5 435 L 154.5 437 L 153.5 435 Z " /><path fill="rgb(165,194,195)" stroke="rgb(165,194,195)" stroke-width="1" opacity="1" d="M 262.5 435 L 263.5 437 L 262.5 435 Z " /><path fill="rgb(165,194,195)" stroke="rgb(165,194,195)" stroke-width="1" opacity="1" d="M 291.5 435 L 292 437.5 L 291 437.5 L 291.5 435 Z " /><path fill="rgb(165,194,195)" stroke="rgb(165,194,195)" stroke-width="1" opacity="1" d="M 605.5 435 L 606.5 437 L 605.5 435 Z " /><path fill="rgb(165,194,195)" stroke="rgb(165,194,195)" stroke-width="1" opacity="1" d="M 608.5 440 L 609.5 442 L 608.5 440 Z " /><path fill="rgb(165,194,195)" stroke="rgb(165,194,195)" stroke-width="1" opacity="1" d="M 101.5 441 L 100.5 443 L 101.5 441 Z " /><path fill="rgb(165,194,195)" stroke="rgb(165,194,195)" stroke-width="1" opacity="1" d="M 582.5 446 L 583.5 448 L 582.5 446 Z " /><path fill="rgb(165,194,195)" stroke="rgb(165,194,195)" stroke-width="1" opacity="1" d="M 291.5 448 L 292 451.5 L 291 451.5 L 291.5 448 Z " /><path fill="rgb(165,194,195)" stroke="rgb(165,194,195)" stroke-width="1" opacity="1" d="M 305.5 449 L 306 451.5 L 305 451.5 L 305.5 449 Z " /><path fill="rgb(165,194,195)" stroke="rgb(165,194,195)" stroke-width="1" opacity="1" d="M 263.5 450 L 260.5 454 L 263.5 450 Z " /><path fill="rgb(165,194,195)" stroke="rgb(165,194,195)" stroke-width="1" opacity="1" d="M 616.5 453 L 617.5 455 L 616.5 453 Z " /><path fill="rgb(165,194,195)" stroke="rgb(165,194,195)" stroke-width="1" opacity="1" d="M 304.5 454 L 305 457.5 L 304 457.5 L 304.5 454 Z " /><path fill="rgb(165,194,195)" stroke="rgb(165,194,195)" stroke-width="1" opacity="1" d="M 526.5 454 L 527 478 L 476 478 L 476 501.5 L 475 501.5 L 475 478.5 L 476.5 477 L 526 477 L 526.5 454 Z " /><path fill="rgb(165,194,195)" stroke="rgb(165,194,195)" stroke-width="1" opacity="1" d="M 228.5 456 L 252 456.5 L 228.5 457 L 228.5 456 Z " /><path fill="rgb(165,194,195)" stroke="rgb(165,194,195)" stroke-width="1" opacity="1" d="M 66.5 458 L 67 474.5 L 66 474.5 L 66.5 458 Z " /><path fill="rgb(165,194,195)" stroke="rgb(165,194,195)" stroke-width="1" opacity="1" d="M 430.5 458 L 431 474.5 L 430 474.5 L 430.5 458 Z " /><path fill="rgb(165,194,195)" stroke="rgb(165,194,195)" stroke-width="1" opacity="1" d="M 619.5 458 L 620.5 460 L 619.5 458 Z " /><path fill="rgb(165,194,195)" stroke="rgb(165,194,195)" stroke-width="1" opacity="1" d="M 93.5 459 L 94 461.5 L 93 461.5 L 93.5 459 Z " /><path fill="rgb(165,194,195)" stroke="rgb(165,194,195)" stroke-width="1" opacity="1" d="M 288.5 459 L 289 460.5 L 287 461.5 L 288.5 459 Z " /><path fill="rgb(165,194,195)" stroke="rgb(165,194,195)" stroke-width="1" opacity="1" d="M 590.5 459 L 591.5 461 L 590.5 459 Z " /><path fill="rgb(165,194,195)" stroke="rgb(165,194,195)" stroke-width="1" opacity="1" d="M 593.5 464 L 594.5 466 L 593.5 464 Z " /><path fill="rgb(165,194,195)" stroke="rgb(165,194,195)" stroke-width="1" opacity="1" d="M 283.5 467 L 282.5 469 L 283.5 467 Z " /><path fill="rgb(165,194,195)" stroke="rgb(165,194,195)" stroke-width="1" opacity="1" d="M 279.5 470 L 278.5 472 L 279.5 470 Z " /><path fill="rgb(165,194,195)" stroke="rgb(165,194,195)" stroke-width="1" opacity="1" d="M 93.5 471 L 94 474.5 L 93 474.5 L 93.5 471 Z " /><path fill="rgb(165,194,195)" stroke="rgb(165,194,195)" stroke-width="1" opacity="1" d="M 627.5 471 L 628.5 473 L 627.5 471 Z " /><path fill="rgb(165,194,195)" stroke="rgb(165,194,195)" stroke-width="1" opacity="1" d="M 598.5 472 L 599.5 474 L 598.5 472 Z " /><path fill="rgb(165,194,195)" stroke="rgb(165,194,195)" stroke-width="1" opacity="1" d="M 304.5 476 L 305 478.5 L 304 478.5 L 304.5 476 Z " /><path fill="rgb(165,194,195)" stroke="rgb(165,194,195)" stroke-width="1" opacity="1" d="M 630.5 476 L 631.5 478 L 630.5 476 Z " /><path fill="rgb(165,194,195)" stroke="rgb(165,194,195)" stroke-width="1" opacity="1" d="M 601.5 477 L 602.5 479 L 601.5 477 Z " /><path fill="rgb(165,194,195)" stroke="rgb(165,194,195)" stroke-width="1" opacity="1" d="M 717.5 477 L 767 477.5 L 717.5 478 L 717.5 477 Z " /><path fill="rgb(165,194,195)" stroke="rgb(165,194,195)" stroke-width="1" opacity="1" d="M 228.5 478 L 240.5 478 L 242 479.5 L 240.5 479 L 228.5 479 L 228.5 478 Z " /><path fill="rgb(165,194,195)" stroke="rgb(165,194,195)" stroke-width="1" opacity="1" d="M 67.5 479 L 68 481.5 L 67 481.5 L 67.5 479 Z " /><path fill="rgb(165,194,195)" stroke="rgb(165,194,195)" stroke-width="1" opacity="1" d="M 133.5 479 L 153.5 479 L 155 480.5 L 155 498.5 L 153.5 500 L 154 498.5 L 154 480 L 133.5 480 L 133.5 479 Z " /><path fill="rgb(165,194,195)" stroke="rgb(165,194,195)" stroke-width="1" opacity="1" d="M 429.5 479 L 430 481.5 L 429 481.5 L 429.5 479 Z " /><path fill="rgb(165,194,195)" stroke="rgb(165,194,195)" stroke-width="1" opacity="1" d="M 609.5 490 L 610.5 492 L 609.5 490 Z " /><path fill="rgb(165,194,195)" stroke="rgb(165,194,195)" stroke-width="1" opacity="1" d="M 102.5 493 L 105.5 497 L 102.5 493 Z " /><path fill="rgb(165,194,195)" stroke="rgb(165,194,195)" stroke-width="1" opacity="1" d="M 249.5 495 L 250.5 497 L 249.5 495 Z " /><path fill="rgb(165,194,195)" stroke="rgb(165,194,195)" stroke-width="1" opacity="1" d="M 75.5 501 L 76.5 503 L 75.5 501 Z " /><path fill="rgb(165,194,195)" stroke="rgb(165,194,195)" stroke-width="1" opacity="1" d="M 421.5 501 L 420.5 503 L 421.5 501 Z " /><path fill="rgb(165,194,195)" stroke="rgb(165,194,195)" stroke-width="1" opacity="1" d="M 118.5 503 L 121 503.5 L 118.5 504 L 118.5 503 Z " /><path fill="rgb(165,194,195)" stroke="rgb(165,194,195)" stroke-width="1" opacity="1" d="M 617.5 503 L 618.5 505 L 617.5 503 Z " /><path fill="rgb(165,194,195)" stroke="rgb(165,194,195)" stroke-width="1" opacity="1" d="M 77.5 504 L 78.5 506 L 77.5 504 Z " /><path fill="rgb(165,194,195)" stroke="rgb(165,194,195)" stroke-width="1" opacity="1" d="M 123.5 504 L 128 504.5 L 123.5 505 L 123.5 504 Z " /><path fill="rgb(165,194,195)" stroke="rgb(165,194,195)" stroke-width="1" opacity="1" d="M 133.5 504 L 138 504.5 L 133.5 505 L 133.5 504 Z " /><path fill="rgb(165,194,195)" stroke="rgb(165,194,195)" stroke-width="1" opacity="1" d="M 419.5 504 L 418.5 506 L 419.5 504 Z " /><path fill="rgb(165,194,195)" stroke="rgb(165,194,195)" stroke-width="1" opacity="1" d="M 316.5 506 L 319.5 510 L 316.5 506 Z " /><path fill="rgb(165,194,195)" stroke="rgb(165,194,195)" stroke-width="1" opacity="1" d="M 620.5 508 L 621.5 510 L 620.5 508 Z " /><path fill="rgb(165,194,195)" stroke="rgb(165,194,195)" stroke-width="1" opacity="1" d="M 82.5 510 L 84.5 513 L 82.5 510 Z " /><path fill="rgb(165,194,195)" stroke="rgb(165,194,195)" stroke-width="1" opacity="1" d="M 414.5 510 L 412.5 513 L 414.5 510 Z " /><path fill="rgb(165,194,195)" stroke="rgb(165,194,195)" stroke-width="1" opacity="1" d="M 322.5 512 L 325.5 516 L 322.5 512 Z " /><path fill="rgb(165,194,195)" stroke="rgb(165,194,195)" stroke-width="1" opacity="1" d="M 88.5 515 L 89.5 517 L 88.5 515 Z " /><path fill="rgb(165,194,195)" stroke="rgb(165,194,195)" stroke-width="1" opacity="1" d="M 408.5 515 L 407.5 517 L 408.5 515 Z " /><path fill="rgb(165,194,195)" stroke="rgb(165,194,195)" stroke-width="1" opacity="1" d="M 327.5 516 L 328.5 518 L 327.5 516 Z " /><path fill="rgb(165,194,195)" stroke="rgb(165,194,195)" stroke-width="1" opacity="1" d="M 628.5 521 L 629.5 523 L 628.5 521 Z " /><path fill="rgb(165,194,195)" stroke="rgb(165,194,195)" stroke-width="1" opacity="1" d="M 630.5 524 L 631.5 525 L 665 525.5 L 631.5 526 L 630.5 524 Z " /><path fill="rgb(165,194,195)" stroke="rgb(165,194,195)" stroke-width="1" opacity="1" d="M 202.5 525 L 228 525.5 L 202.5 526 L 202.5 525 Z " /><path fill="rgb(165,194,195)" stroke="rgb(165,194,195)" stroke-width="1" opacity="1" d="M 265.5 525 L 297 525.5 L 265.5 526 L 265.5 525 Z " /><path fill="rgb(165,194,195)" stroke="rgb(165,194,195)" stroke-width="1" opacity="1" d="M 110.5 526 L 113 526.5 L 110.5 527 L 110.5 526 Z " /><path fill="rgb(165,194,195)" stroke="rgb(165,194,195)" stroke-width="1" opacity="1" d="M 151.5 526 L 154 526.5 L 151.5 527 L 151.5 526 Z " /><path fill="rgb(165,194,195)" stroke="rgb(165,194,195)" stroke-width="1" opacity="1" d="M 384.5 526 L 387 526.5 L 384.5 527 L 384.5 526 Z " /><path fill="rgb(165,194,195)" stroke="rgb(165,194,195)" stroke-width="1" opacity="1" d="M 115.5 527 L 118 527.5 L 115.5 528 L 115.5 527 Z " /><path fill="rgb(165,194,195)" stroke="rgb(165,194,195)" stroke-width="1" opacity="1" d="M 144.5 527 L 148 527.5 L 144.5 528 L 144.5 527 Z " /><path fill="rgb(165,194,195)" stroke="rgb(165,194,195)" stroke-width="1" opacity="1" d="M 352.5 527 L 356 527.5 L 352.5 528 L 352.5 527 Z " /><path fill="rgb(165,194,195)" stroke="rgb(165,194,195)" stroke-width="1" opacity="1" d="M 379.5 527 L 382 527.5 L 379.5 528 L 379.5 527 Z " /><path fill="rgb(165,194,195)" stroke="rgb(165,194,195)" stroke-width="1" opacity="1" d="M 122.5 528 L 139 528.5 L 122.5 529 L 122.5 528 Z " /><path fill="rgb(165,194,195)" stroke="rgb(165,194,195)" stroke-width="1" opacity="1" d="M 360.5 528 L 375 528.5 L 360.5 529 L 360.5 528 Z " /><path fill="rgb(165,194,195)" stroke="rgb(165,194,195)" stroke-width="1" opacity="1" d="M 586.5 538 L 593 538.5 L 586.5 539 L 586.5 538 Z " /><path fill="rgb(165,194,195)" stroke="rgb(165,194,195)" stroke-width="1" opacity="1" d="M 598.5 538 L 605 538.5 L 598.5 539 L 598.5 538 Z " /><path fill="rgb(165,194,195)" stroke="rgb(165,194,195)" stroke-width="1" opacity="1" d="M 828.5 538 L 834 538.5 L 828.5 539 L 828.5 538 Z " /><path fill="rgb(165,194,195)" stroke="rgb(165,194,195)" stroke-width="1" opacity="1" d="M 844.5 538 L 850 538.5 L 844.5 539 L 844.5 538 Z " /><path fill="rgb(165,194,195)" stroke="rgb(165,194,195)" stroke-width="1" opacity="1" d="M 967.5 538 L 972 538.5 L 967.5 539 L 967.5 538 Z " /><path fill="rgb(165,194,195)" stroke="rgb(165,194,195)" stroke-width="1" opacity="1" d="M 983.5 538 L 988 538.5 L 983.5 539 L 983.5 538 Z " /><path fill="rgb(165,194,195)" stroke="rgb(165,194,195)" stroke-width="1" opacity="1" d="M 579.5 539 L 582 539.5 L 579.5 540 L 579.5 539 Z " /><path fill="rgb(165,194,195)" stroke="rgb(165,194,195)" stroke-width="1" opacity="1" d="M 72.5 541 L 73 658.5 L 72 658.5 L 72.5 541 Z " /><path fill="rgb(165,194,195)" stroke="rgb(165,194,195)" stroke-width="1" opacity="1" d="M 205.5 541 L 206 658.5 L 205 658.5 L 205.5 541 Z " /><path fill="rgb(165,194,195)" stroke="rgb(165,194,195)" stroke-width="1" opacity="1" d="M 310.5 541 L 311 564.5 L 310 564.5 L 310.5 541 Z " /><path fill="rgb(165,194,195)" stroke="rgb(165,194,195)" stroke-width="1" opacity="1" d="M 430.5 541 L 431 658.5 L 430 658.5 L 430.5 541 Z " /><path fill="rgb(165,194,195)" stroke="rgb(165,194,195)" stroke-width="1" opacity="1" d="M 480.5 541 L 486 541.5 L 480.5 542 L 480.5 541 Z " /><path fill="rgb(165,194,195)" stroke="rgb(165,194,195)" stroke-width="1" opacity="1" d="M 725.5 541 L 731 541.5 L 725.5 542 L 725.5 541 Z " /><path fill="rgb(165,194,195)" stroke="rgb(165,194,195)" stroke-width="1" opacity="1" d="M 1085.5 541 L 1086 634.5 L 1085 634.5 L 1085.5 541 Z " /><path fill="rgb(165,194,195)" stroke="rgb(165,194,195)" stroke-width="1" opacity="1" d="M 735.5 542 L 738 542.5 L 735.5 543 L 735.5 542 Z " /><path fill="rgb(165,194,195)" stroke="rgb(165,194,195)" stroke-width="1" opacity="1" d="M 564.5 544 L 566 544.5 L 563.5 546 L 564.5 544 Z " /><path fill="rgb(165,194,195)" stroke="rgb(165,194,195)" stroke-width="1" opacity="1" d="M 505.5 547 L 506.5 549 L 505.5 547 Z " /><path fill="rgb(165,194,195)" stroke="rgb(165,194,195)" stroke-width="1" opacity="1" d="M 802.5 547 L 801.5 549 L 802.5 547 Z " /><path fill="rgb(165,194,195)" stroke="rgb(165,194,195)" stroke-width="1" opacity="1" d="M 875.5 547 L 876.5 549 L 875.5 547 Z " /><path fill="rgb(165,194,195)" stroke="rgb(165,194,195)" stroke-width="1" opacity="1" d="M 939.5 548 L 938.5 550 L 939.5 548 Z " /><path fill="rgb(165,194,195)" stroke="rgb(165,194,195)" stroke-width="1" opacity="1" d="M 1015.5 548 L 1016.5 550 L 1015.5 548 Z " /><path fill="rgb(165,194,195)" stroke="rgb(165,194,195)" stroke-width="1" opacity="1" d="M 753.5 549 L 754.5 551 L 753.5 549 Z " /><path fill="rgb(165,194,195)" stroke="rgb(165,194,195)" stroke-width="1" opacity="1" d="M 799.5 549 L 798.5 551 L 799.5 549 Z " /><path fill="rgb(165,194,195)" stroke="rgb(165,194,195)" stroke-width="1" opacity="1" d="M 509.5 550 L 513.5 555 L 509.5 550 Z " /><path fill="rgb(165,194,195)" stroke="rgb(165,194,195)" stroke-width="1" opacity="1" d="M 936.5 550 L 933.5 554 L 936.5 550 Z " /><path fill="rgb(165,194,195)" stroke="rgb(165,194,195)" stroke-width="1" opacity="1" d="M 1018.5 550 L 1027.5 560 L 1018.5 550 Z " /><path fill="rgb(165,194,195)" stroke="rgb(165,194,195)" stroke-width="1" opacity="1" d="M 553.5 551 L 551.5 554 L 553.5 551 Z " /><path fill="rgb(165,194,195)" stroke="rgb(165,194,195)" stroke-width="1" opacity="1" d="M 638.5 552 L 645.5 560 L 638.5 552 Z " /><path fill="rgb(165,194,195)" stroke="rgb(165,194,195)" stroke-width="1" opacity="1" d="M 757.5 553 L 758.5 555 L 757.5 553 Z " /><path fill="rgb(165,194,195)" stroke="rgb(165,194,195)" stroke-width="1" opacity="1" d="M 794.5 553 L 790.5 558 L 794.5 553 Z " /><path fill="rgb(165,194,195)" stroke="rgb(165,194,195)" stroke-width="1" opacity="1" d="M 930.5 556 L 927.5 560 L 930.5 556 Z " /><path fill="rgb(165,194,195)" stroke="rgb(165,194,195)" stroke-width="1" opacity="1" d="M 546.5 558 L 544.5 561 L 546.5 558 Z " /><path fill="rgb(165,194,195)" stroke="rgb(165,194,195)" stroke-width="1" opacity="1" d="M 889.5 560 L 890.5 562 L 889.5 560 Z " /><path fill="rgb(165,194,195)" stroke="rgb(165,194,195)" stroke-width="1" opacity="1" d="M 787.5 561 L 786.5 563 L 787.5 561 Z " /><path fill="rgb(165,194,195)" stroke="rgb(165,194,195)" stroke-width="1" opacity="1" d="M 647.5 562 L 648.5 564 L 647.5 562 Z " /><path fill="rgb(165,194,195)" stroke="rgb(165,194,195)" stroke-width="1" opacity="1" d="M 925.5 562 L 924.5 564 L 925.5 562 Z " /><path fill="rgb(165,194,195)" stroke="rgb(165,194,195)" stroke-width="1" opacity="1" d="M 1029.5 562 L 1030.5 564 L 1029.5 562 Z " /><path fill="rgb(165,194,195)" stroke="rgb(165,194,195)" stroke-width="1" opacity="1" d="M 479.5 563 L 482 563.5 L 479.5 564 L 479.5 563 Z " /><path fill="rgb(165,194,195)" stroke="rgb(165,194,195)" stroke-width="1" opacity="1" d="M 702.5 563 L 703 590.5 L 702 590.5 L 702.5 563 Z " /><path fill="rgb(165,194,195)" stroke="rgb(165,194,195)" stroke-width="1" opacity="1" d="M 722.5 563 L 726 563.5 L 722.5 564 L 722.5 563 Z " /><path fill="rgb(165,194,195)" stroke="rgb(165,194,195)" stroke-width="1" opacity="1" d="M 357.5 564 L 358 658.5 L 357 658.5 L 357.5 564 Z " /><path fill="rgb(165,194,195)" stroke="rgb(165,194,195)" stroke-width="1" opacity="1" d="M 383.5 564 L 384 658.5 L 383 658.5 L 383.5 564 Z " /><path fill="rgb(165,194,195)" stroke="rgb(165,194,195)" stroke-width="1" opacity="1" d="M 785.5 564 L 784.5 566 L 785.5 564 Z " /><path fill="rgb(165,194,195)" stroke="rgb(165,194,195)" stroke-width="1" opacity="1" d="M 256.5 565 L 257 586.5 L 256 586.5 L 256.5 565 Z " /><path fill="rgb(165,194,195)" stroke="rgb(165,194,195)" stroke-width="1" opacity="1" d="M 923.5 565 L 922.5 567 L 923.5 565 Z " /><path fill="rgb(165,194,195)" stroke="rgb(165,194,195)" stroke-width="1" opacity="1" d="M 1031.5 565 L 1032.5 567 L 1031.5 565 Z " /><path fill="rgb(165,194,195)" stroke="rgb(165,194,195)" stroke-width="1" opacity="1" d="M 488.5 566 L 491.5 570 L 488.5 566 Z " /><path fill="rgb(165,194,195)" stroke="rgb(165,194,195)" stroke-width="1" opacity="1" d="M 893.5 566 L 894.5 568 L 893.5 566 Z " /><path fill="rgb(165,194,195)" stroke="rgb(165,194,195)" stroke-width="1" opacity="1" d="M 519.5 567 L 520 569.5 L 519 569.5 L 519.5 567 Z " /><path fill="rgb(165,194,195)" stroke="rgb(165,194,195)" stroke-width="1" opacity="1" d="M 734.5 567 L 735.5 569 L 734.5 567 Z " /><path fill="rgb(165,194,195)" stroke="rgb(165,194,195)" stroke-width="1" opacity="1" d="M 764.5 567 L 765 569.5 L 764 569.5 L 764.5 567 Z " /><path fill="rgb(165,194,195)" stroke="rgb(165,194,195)" stroke-width="1" opacity="1" d="M 179.5 568 L 180 569.5 L 178.5 572 L 178 570.5 L 179.5 568 Z " /><path fill="rgb(165,194,195)" stroke="rgb(165,194,195)" stroke-width="1" opacity="1" d="M 98.5 569 L 100 571.5 L 99 572.5 L 98.5 659 L 98.5 569 Z " /><path fill="rgb(165,194,195)" stroke="rgb(165,194,195)" stroke-width="1" opacity="1" d="M 493.5 575 L 494 578.5 L 493 578.5 L 493.5 575 Z " /><path fill="rgb(165,194,195)" stroke="rgb(165,194,195)" stroke-width="1" opacity="1" d="M 738.5 575 L 739 578.5 L 738 578.5 L 738.5 575 Z " /><path fill="rgb(165,194,195)" stroke="rgb(165,194,195)" stroke-width="1" opacity="1" d="M 519.5 583 L 520 585.5 L 519 585.5 L 519.5 583 Z " /><path fill="rgb(165,194,195)" stroke="rgb(165,194,195)" stroke-width="1" opacity="1" d="M 533.5 583 L 534 585.5 L 533 585.5 L 533.5 583 Z " /><path fill="rgb(165,194,195)" stroke="rgb(165,194,195)" stroke-width="1" opacity="1" d="M 736.5 584 L 733.5 588 L 736.5 584 Z " /><path fill="rgb(165,194,195)" stroke="rgb(165,194,195)" stroke-width="1" opacity="1" d="M 764.5 584 L 765 586.5 L 764 586.5 L 764.5 584 Z " /><path fill="rgb(165,194,195)" stroke="rgb(165,194,195)" stroke-width="1" opacity="1" d="M 776.5 586 L 777 588.5 L 776 588.5 L 776.5 586 Z " /><path fill="rgb(165,194,195)" stroke="rgb(165,194,195)" stroke-width="1" opacity="1" d="M 901.5 586 L 902 589.5 L 901 589.5 L 901.5 586 Z " /><path fill="rgb(165,194,195)" stroke="rgb(165,194,195)" stroke-width="1" opacity="1" d="M 307.5 587 L 308 610.5 L 307 610.5 L 307.5 587 Z " /><path fill="rgb(165,194,195)" stroke="rgb(165,194,195)" stroke-width="1" opacity="1" d="M 478.5 589 L 482 589.5 L 478.5 590 L 478.5 589 Z " /><path fill="rgb(165,194,195)" stroke="rgb(165,194,195)" stroke-width="1" opacity="1" d="M 532.5 589 L 533 591.5 L 532 591.5 L 532.5 589 Z " /><path fill="rgb(165,194,195)" stroke="rgb(165,194,195)" stroke-width="1" opacity="1" d="M 914.5 589 L 915 592.5 L 914 592.5 L 914.5 589 Z " /><path fill="rgb(165,194,195)" stroke="rgb(165,194,195)" stroke-width="1" opacity="1" d="M 658.5 590 L 659 595.5 L 658 595.5 L 658.5 590 Z " /><path fill="rgb(165,194,195)" stroke="rgb(165,194,195)" stroke-width="1" opacity="1" d="M 724.5 590 L 727 590.5 L 724.5 591 L 724.5 590 Z " /><path fill="rgb(165,194,195)" stroke="rgb(165,194,195)" stroke-width="1" opacity="1" d="M 1040.5 590 L 1041 593.5 L 1040 593.5 L 1040.5 590 Z " /><path fill="rgb(165,194,195)" stroke="rgb(165,194,195)" stroke-width="1" opacity="1" d="M 775.5 592 L 776 607.5 L 775 607.5 L 775.5 592 Z " /><path fill="rgb(165,194,195)" stroke="rgb(165,194,195)" stroke-width="1" opacity="1" d="M 515.5 595 L 514.5 597 L 515.5 595 Z " /><path fill="rgb(165,194,195)" stroke="rgb(165,194,195)" stroke-width="1" opacity="1" d="M 902.5 595 L 903 605.5 L 902 605.5 L 902.5 595 Z " /><path fill="rgb(165,194,195)" stroke="rgb(165,194,195)" stroke-width="1" opacity="1" d="M 513.5 598 L 508.5 604 L 513.5 598 Z " /><path fill="rgb(165,194,195)" stroke="rgb(165,194,195)" stroke-width="1" opacity="1" d="M 759.5 598 L 758.5 600 L 759.5 598 Z " /><path fill="rgb(165,194,195)" stroke="rgb(165,194,195)" stroke-width="1" opacity="1" d="M 506.5 604 L 505.5 606 L 506.5 604 Z " /><path fill="rgb(165,194,195)" stroke="rgb(165,194,195)" stroke-width="1" opacity="1" d="M 658.5 604 L 659 609.5 L 658 609.5 L 658.5 604 Z " /><path fill="rgb(165,194,195)" stroke="rgb(165,194,195)" stroke-width="1" opacity="1" d="M 753.5 604 L 752.5 606 L 753.5 604 Z " /><path fill="rgb(165,194,195)" stroke="rgb(165,194,195)" stroke-width="1" opacity="1" d="M 750.5 606 L 749.5 608 L 750.5 606 Z " /><path fill="rgb(165,194,195)" stroke="rgb(165,194,195)" stroke-width="1" opacity="1" d="M 914.5 607 L 915 610.5 L 914 610.5 L 914.5 607 Z " /><path fill="rgb(165,194,195)" stroke="rgb(165,194,195)" stroke-width="1" opacity="1" d="M 1040.5 607 L 1041 610.5 L 1040 610.5 L 1040.5 607 Z " /><path fill="rgb(165,194,195)" stroke="rgb(165,194,195)" stroke-width="1" opacity="1" d="M 496.5 608 L 499 608.5 L 496.5 609 L 496.5 608 Z " /><path fill="rgb(165,194,195)" stroke="rgb(165,194,195)" stroke-width="1" opacity="1" d="M 532.5 608 L 533 610.5 L 532 610.5 L 532.5 608 Z " /><path fill="rgb(165,194,195)" stroke="rgb(165,194,195)" stroke-width="1" opacity="1" d="M 901.5 610 L 902 613.5 L 901 613.5 L 901.5 610 Z " /><path fill="rgb(165,194,195)" stroke="rgb(165,194,195)" stroke-width="1" opacity="1" d="M 256.5 611 L 257 634.5 L 256 634.5 L 256.5 611 Z " /><path fill="rgb(165,194,195)" stroke="rgb(165,194,195)" stroke-width="1" opacity="1" d="M 457.5 611 L 468.5 611 L 470 612.5 L 468.5 612 L 457.5 612 L 457.5 611 Z " /><path fill="rgb(165,194,195)" stroke="rgb(165,194,195)" stroke-width="1" opacity="1" d="M 736.5 611 L 739 611.5 L 736.5 612 L 736.5 611 Z " /><path fill="rgb(165,194,195)" stroke="rgb(165,194,195)" stroke-width="1" opacity="1" d="M 727.5 612 L 732 612.5 L 727.5 613 L 727.5 612 Z " /><path fill="rgb(165,194,195)" stroke="rgb(165,194,195)" stroke-width="1" opacity="1" d="M 776.5 612 L 777 614.5 L 776 614.5 L 776.5 612 Z " /><path fill="rgb(165,194,195)" stroke="rgb(165,194,195)" stroke-width="1" opacity="1" d="M 702.5 613 L 703 658.5 L 702 658.5 L 702.5 613 Z " /><path fill="rgb(165,194,195)" stroke="rgb(165,194,195)" stroke-width="1" opacity="1" d="M 533.5 614 L 534 616.5 L 533 616.5 L 533.5 614 Z " /><path fill="rgb(165,194,195)" stroke="rgb(165,194,195)" stroke-width="1" opacity="1" d="M 138.5 616 L 139.5 618 Q 136.7 618.7 138.5 616 Z " /><path fill="rgb(165,194,195)" stroke="rgb(165,194,195)" stroke-width="1" opacity="1" d="M 476.5 626 L 477.5 628 L 476.5 626 Z " /><path fill="rgb(165,194,195)" stroke="rgb(165,194,195)" stroke-width="1" opacity="1" d="M 313.5 635 L 314 658.5 L 313 658.5 L 313.5 635 Z " /><path fill="rgb(165,194,195)" stroke="rgb(165,194,195)" stroke-width="1" opacity="1" d="M 923.5 635 L 924.5 637 L 923.5 635 Z " /><path fill="rgb(165,194,195)" stroke="rgb(165,194,195)" stroke-width="1" opacity="1" d="M 648.5 636 L 647.5 638 L 648.5 636 Z " /><path fill="rgb(165,194,195)" stroke="rgb(165,194,195)" stroke-width="1" opacity="1" d="M 786.5 637 L 787.5 639 L 786.5 637 Z " /><path fill="rgb(165,194,195)" stroke="rgb(165,194,195)" stroke-width="1" opacity="1" d="M 890.5 638 L 889.5 640 L 890.5 638 Z " /><path fill="rgb(165,194,195)" stroke="rgb(165,194,195)" stroke-width="1" opacity="1" d="M 544.5 639 L 546.5 642 L 544.5 639 Z " /><path fill="rgb(165,194,195)" stroke="rgb(165,194,195)" stroke-width="1" opacity="1" d="M 926.5 639 L 930.5 644 L 926.5 639 Z " /><path fill="rgb(165,194,195)" stroke="rgb(165,194,195)" stroke-width="1" opacity="1" d="M 645.5 640 L 638.5 648 L 645.5 640 Z " /><path fill="rgb(165,194,195)" stroke="rgb(165,194,195)" stroke-width="1" opacity="1" d="M 1027.5 640 L 1020.5 648 L 1027.5 640 Z " /><path fill="rgb(165,194,195)" stroke="rgb(165,194,195)" stroke-width="1" opacity="1" d="M 790.5 642 L 793.5 646 L 790.5 642 Z " /><path fill="rgb(165,194,195)" stroke="rgb(165,194,195)" stroke-width="1" opacity="1" d="M 932.5 645 L 935.5 649 L 932.5 645 Z " /><path fill="rgb(165,194,195)" stroke="rgb(165,194,195)" stroke-width="1" opacity="1" d="M 551.5 646 L 553.5 649 L 551.5 646 Z " /><path fill="rgb(165,194,195)" stroke="rgb(165,194,195)" stroke-width="1" opacity="1" d="M 797.5 648 L 798.5 650 L 797.5 648 Z " /><path fill="rgb(165,194,195)" stroke="rgb(165,194,195)" stroke-width="1" opacity="1" d="M 880.5 648 L 879.5 650 L 880.5 648 Z " /><path fill="rgb(165,194,195)" stroke="rgb(165,194,195)" stroke-width="1" opacity="1" d="M 635.5 649 L 634.5 651 L 635.5 649 Z " /><path fill="rgb(165,194,195)" stroke="rgb(165,194,195)" stroke-width="1" opacity="1" d="M 519.5 650 L 520.5 652 L 519.5 650 Z " /><path fill="rgb(165,194,195)" stroke="rgb(165,194,195)" stroke-width="1" opacity="1" d="M 938.5 650 L 939.5 652 L 938.5 650 Z " /><path fill="rgb(165,194,195)" stroke="rgb(165,194,195)" stroke-width="1" opacity="1" d="M 801.5 651 L 802.5 653 L 801.5 651 Z " /><path fill="rgb(165,194,195)" stroke="rgb(165,194,195)" stroke-width="1" opacity="1" d="M 876.5 651 L 875.5 653 L 876.5 651 Z " /><path fill="rgb(165,194,195)" stroke="rgb(165,194,195)" stroke-width="1" opacity="1" d="M 563.5 654 L 566 655.5 L 564.5 656 L 563.5 654 Z " /><path fill="rgb(165,194,195)" stroke="rgb(165,194,195)" stroke-width="1" opacity="1" d="M 945.5 654 L 948 655.5 L 946.5 656 L 945.5 654 Z " /><path fill="rgb(165,194,195)" stroke="rgb(165,194,195)" stroke-width="1" opacity="1" d="M 522.5 655 L 523.5 657 L 522.5 655 Z " /><path fill="rgb(165,194,195)" stroke="rgb(165,194,195)" stroke-width="1" opacity="1" d="M 579.5 660 L 582 660.5 L 579.5 661 L 579.5 660 Z " /><path fill="rgb(165,194,195)" stroke="rgb(165,194,195)" stroke-width="1" opacity="1" d="M 822.5 660 L 825 660.5 L 822.5 661 L 822.5 660 Z " /><path fill="rgb(165,194,195)" stroke="rgb(165,194,195)" stroke-width="1" opacity="1" d="M 853.5 660 L 856 660.5 L 853.5 661 L 853.5 660 Z " /><path fill="rgb(165,194,195)" stroke="rgb(165,194,195)" stroke-width="1" opacity="1" d="M 586.5 661 L 593 661.5 L 586.5 662 L 586.5 661 Z " /><path fill="rgb(165,194,195)" stroke="rgb(165,194,195)" stroke-width="1" opacity="1" d="M 598.5 661 L 605 661.5 L 598.5 662 L 598.5 661 Z " /><path fill="rgb(165,194,195)" stroke="rgb(165,194,195)" stroke-width="1" opacity="1" d="M 828.5 661 L 834 661.5 L 828.5 662 L 828.5 661 Z " /><path fill="rgb(165,194,195)" stroke="rgb(165,194,195)" stroke-width="1" opacity="1" d="M 844.5 661 L 850 661.5 L 844.5 662 L 844.5 661 Z " /><path fill="rgb(165,194,195)" stroke="rgb(165,194,195)" stroke-width="1" opacity="1" d="M 967.5 661 L 972 661.5 L 967.5 662 L 967.5 661 Z " /><path fill="rgb(165,194,195)" stroke="rgb(165,194,195)" stroke-width="1" opacity="1" d="M 983.5 661 L 988 661.5 L 983.5 662 L 983.5 661 Z " /><path fill="rgb(165,194,195)" stroke="rgb(165,194,195)" stroke-width="1" opacity="1" d="M 335.5 671 L 351 671.5 L 335.5 672 L 335.5 671 Z " /><path fill="rgb(165,194,195)" stroke="rgb(165,194,195)" stroke-width="1" opacity="1" d="M 514.5 671 L 529 671.5 L 514.5 672 L 514.5 671 Z " /><path fill="rgb(165,194,195)" stroke="rgb(165,194,195)" stroke-width="1" opacity="1" d="M 328.5 672 L 331 672.5 L 328.5 673 L 328.5 672 Z " /><path fill="rgb(165,194,195)" stroke="rgb(165,194,195)" stroke-width="1" opacity="1" d="M 356.5 672 L 360 672.5 L 356.5 673 L 356.5 672 Z " /><path fill="rgb(165,194,195)" stroke="rgb(165,194,195)" stroke-width="1" opacity="1" d="M 507.5 672 L 510 672.5 L 507.5 673 L 507.5 672 Z " /><path fill="rgb(165,194,195)" stroke="rgb(165,194,195)" stroke-width="1" opacity="1" d="M 533.5 672 L 536 672.5 L 533.5 673 L 533.5 672 Z " /><path fill="rgb(165,194,195)" stroke="rgb(165,194,195)" stroke-width="1" opacity="1" d="M 362.5 673 L 365 673.5 L 362.5 674 L 362.5 673 Z " /><path fill="rgb(165,194,195)" stroke="rgb(165,194,195)" stroke-width="1" opacity="1" d="M 72 674 L 126 674.5 L 73 675 L 72.5 792 L 72 674 Z " /><path fill="rgb(165,194,195)" stroke="rgb(165,194,195)" stroke-width="1" opacity="1" d="M 181 674 L 261.5 674 L 262 674.5 L 262 697.5 L 261 697.5 L 261 675.5 L 260.5 675 L 182 675 L 181.5 792 L 181 674 Z " /><path fill="rgb(165,194,195)" stroke="rgb(165,194,195)" stroke-width="1" opacity="1" d="M 414 674 L 440.5 674 L 441 674.5 L 441 791.5 L 440 791.5 L 440 675.5 L 439.5 675 L 415 675 L 414.5 792 L 414 674 Z " /><path fill="rgb(165,194,195)" stroke="rgb(165,194,195)" stroke-width="1" opacity="1" d="M 130.5 675 L 133 675.5 L 130.5 676 L 130.5 675 Z " /><path fill="rgb(165,194,195)" stroke="rgb(165,194,195)" stroke-width="1" opacity="1" d="M 636.5 678 L 646 678.5 L 636.5 679 L 636.5 678 Z " /><path fill="rgb(165,194,195)" stroke="rgb(165,194,195)" stroke-width="1" opacity="1" d="M 674.5 678 L 697 678.5 L 674 679 L 673.5 730 L 673 679.5 L 674.5 678 Z " /><path fill="rgb(165,194,195)" stroke="rgb(165,194,195)" stroke-width="1" opacity="1" d="M 721.5 678 L 737 678.5 L 721.5 679 L 721.5 678 Z " /><path fill="rgb(165,194,195)" stroke="rgb(165,194,195)" stroke-width="1" opacity="1" d="M 759.5 678 L 770 678.5 L 759.5 679 L 759.5 678 Z " /><path fill="rgb(165,194,195)" stroke="rgb(165,194,195)" stroke-width="1" opacity="1" d="M 781.5 678 L 792 678.5 L 781.5 679 L 781.5 678 Z " /><path fill="rgb(165,194,195)" stroke="rgb(165,194,195)" stroke-width="1" opacity="1" d="M 814 678 L 825.5 678 L 826 678.5 L 826 729.5 L 825 729.5 L 825 679.5 L 824.5 679 L 815 679 L 814.5 697 L 814 678 Z " /><path fill="rgb(165,194,195)" stroke="rgb(165,194,195)" stroke-width="1" opacity="1" d="M 837.5 678 L 872 678.5 L 837.5 679 L 837.5 678 Z " /><path fill="rgb(165,194,195)" stroke="rgb(165,194,195)" stroke-width="1" opacity="1" d="M 883.5 678 L 900 678.5 L 883 679 L 882.5 730 L 882 679.5 L 883.5 678 Z " /><path fill="rgb(165,194,195)" stroke="rgb(165,194,195)" stroke-width="1" opacity="1" d="M 924.5 678 L 941 678.5 L 924.5 679 L 923.5 680 L 924.5 678 Z " /><path fill="rgb(165,194,195)" stroke="rgb(165,194,195)" stroke-width="1" opacity="1" d="M 485.5 680 L 484.5 682 L 485.5 680 Z " /><path fill="rgb(165,194,195)" stroke="rgb(165,194,195)" stroke-width="1" opacity="1" d="M 737.5 680 L 738.5 682 L 737.5 680 Z " /><path fill="rgb(165,194,195)" stroke="rgb(165,194,195)" stroke-width="1" opacity="1" d="M 383.5 681 L 384.5 683 L 383.5 681 Z " /><path fill="rgb(165,194,195)" stroke="rgb(165,194,195)" stroke-width="1" opacity="1" d="M 482.5 682 L 481.5 684 L 482.5 682 Z " /><path fill="rgb(165,194,195)" stroke="rgb(165,194,195)" stroke-width="1" opacity="1" d="M 151.5 683 L 155.5 688 L 151.5 683 Z " /><path fill="rgb(165,194,195)" stroke="rgb(165,194,195)" stroke-width="1" opacity="1" d="M 388.5 685 L 390 686.5 L 386.5 690 L 389 686.5 L 388.5 685 Z " /><path fill="rgb(165,194,195)" stroke="rgb(165,194,195)" stroke-width="1" opacity="1" d="M 740.5 685 L 741.5 687 L 740.5 685 Z " /><path fill="rgb(165,194,195)" stroke="rgb(165,194,195)" stroke-width="1" opacity="1" d="M 298.5 686 L 293.5 692 L 298.5 686 Z " /><path fill="rgb(165,194,195)" stroke="rgb(165,194,195)" stroke-width="1" opacity="1" d="M 477.5 686 L 471.5 693 L 477.5 686 Z " /><path fill="rgb(165,194,195)" stroke="rgb(165,194,195)" stroke-width="1" opacity="1" d="M 565.5 686 L 571.5 693 L 565.5 686 Z " /><path fill="rgb(165,194,195)" stroke="rgb(165,194,195)" stroke-width="1" opacity="1" d="M 684.5 689 L 685 699.5 L 684 699.5 L 684.5 689 Z " /><path fill="rgb(165,194,195)" stroke="rgb(165,194,195)" stroke-width="1" opacity="1" d="M 893 691 Q 895.7 689.9 895 692.5 L 894 693.5 L 893.5 730 L 893 691 Z " /><path fill="rgb(165,194,195)" stroke="rgb(165,194,195)" stroke-width="1" opacity="1" d="M 929.5 691 L 930 729.5 L 929 729.5 L 929 694.5 L 928 693.5 L 929.5 691 Z " /><path fill="rgb(165,194,195)" stroke="rgb(165,194,195)" stroke-width="1" opacity="1" d="M 291.5 694 L 290.5 696 L 291.5 694 Z " /><path fill="rgb(165,194,195)" stroke="rgb(165,194,195)" stroke-width="1" opacity="1" d="M 336.5 695 L 340 695.5 L 336.5 696 L 336.5 695 Z " /><path fill="rgb(165,194,195)" stroke="rgb(165,194,195)" stroke-width="1" opacity="1" d="M 345.5 695 L 351 695.5 L 345.5 696 L 345.5 695 Z " /><path fill="rgb(165,194,195)" stroke="rgb(165,194,195)" stroke-width="1" opacity="1" d="M 469.5 695 L 468.5 697 L 469.5 695 Z " /><path fill="rgb(165,194,195)" stroke="rgb(165,194,195)" stroke-width="1" opacity="1" d="M 573.5 695 L 574.5 697 L 573.5 695 Z " /><path fill="rgb(165,194,195)" stroke="rgb(165,194,195)" stroke-width="1" opacity="1" d="M 98.5 696 L 99 722.5 L 98 722.5 L 98.5 696 Z " /><path fill="rgb(165,194,195)" stroke="rgb(165,194,195)" stroke-width="1" opacity="1" d="M 118.5 696 L 123 696.5 L 118.5 697 L 118.5 696 Z " /><path fill="rgb(165,194,195)" stroke="rgb(165,194,195)" stroke-width="1" opacity="1" d="M 380.5 696 L 375.5 702 L 380.5 696 Z " /><path fill="rgb(165,194,195)" stroke="rgb(165,194,195)" stroke-width="1" opacity="1" d="M 712.5 697 L 713 699.5 L 712 699.5 L 712.5 697 Z " /><path fill="rgb(165,194,195)" stroke="rgb(165,194,195)" stroke-width="1" opacity="1" d="M 735.5 698 L 736.5 700 L 735.5 698 Z " /><path fill="rgb(165,194,195)" stroke="rgb(165,194,195)" stroke-width="1" opacity="1" d="M 748.5 698 L 749.5 700 L 748.5 698 Z " /><path fill="rgb(165,194,195)" stroke="rgb(165,194,195)" stroke-width="1" opacity="1" d="M 130.5 699 L 133.5 703 L 130.5 699 Z " /><path fill="rgb(165,194,195)" stroke="rgb(165,194,195)" stroke-width="1" opacity="1" d="M 161.5 699 L 162 701.5 L 161 701.5 L 161.5 699 Z " /><path fill="rgb(165,194,195)" stroke="rgb(165,194,195)" stroke-width="1" opacity="1" d="M 362.5 699 L 363.5 701 L 362.5 699 Z " /><path fill="rgb(165,194,195)" stroke="rgb(165,194,195)" stroke-width="1" opacity="1" d="M 870.5 699 L 871 708.5 L 870 708.5 L 870.5 699 Z " /><path fill="rgb(165,194,195)" stroke="rgb(165,194,195)" stroke-width="1" opacity="1" d="M 287.5 700 L 286.5 702 L 287.5 700 Z " /><path fill="rgb(165,194,195)" stroke="rgb(165,194,195)" stroke-width="1" opacity="1" d="M 322.5 700 L 321.5 702 L 322.5 700 Z " /><path fill="rgb(165,194,195)" stroke="rgb(165,194,195)" stroke-width="1" opacity="1" d="M 365.5 701 L 366.5 703 L 365.5 701 Z " /><path fill="rgb(165,194,195)" stroke="rgb(165,194,195)" stroke-width="1" opacity="1" d="M 318.5 703 L 314.5 708 L 318.5 703 Z " /><path fill="rgb(165,194,195)" stroke="rgb(165,194,195)" stroke-width="1" opacity="1" d="M 738.5 703 L 739.5 705 L 738.5 703 Z " /><path fill="rgb(165,194,195)" stroke="rgb(165,194,195)" stroke-width="1" opacity="1" d="M 751.5 703 L 752.5 705 L 751.5 703 Z " /><path fill="rgb(165,194,195)" stroke="rgb(165,194,195)" stroke-width="1" opacity="1" d="M 709.5 704 L 708.5 706 L 709.5 704 Z " /><path fill="rgb(165,194,195)" stroke="rgb(165,194,195)" stroke-width="1" opacity="1" d="M 135.5 706 L 136 712.5 L 135 712.5 L 135.5 706 Z " /><path fill="rgb(165,194,195)" stroke="rgb(165,194,195)" stroke-width="1" opacity="1" d="M 162.5 706 L 163 712.5 L 162 712.5 L 162.5 706 Z " /><path fill="rgb(165,194,195)" stroke="rgb(165,194,195)" stroke-width="1" opacity="1" d="M 814.5 708 L 815 729.5 L 814 729.5 L 814.5 708 Z " /><path fill="rgb(165,194,195)" stroke="rgb(165,194,195)" stroke-width="1" opacity="1" d="M 685.5 709 L 691 709.5 L 685 710 L 684.5 730 L 684 710.5 L 685.5 709 Z " /><path fill="rgb(165,194,195)" stroke="rgb(165,194,195)" stroke-width="1" opacity="1" d="M 312.5 710 L 311.5 712 L 312.5 710 Z " /><path fill="rgb(165,194,195)" stroke="rgb(165,194,195)" stroke-width="1" opacity="1" d="M 912.5 710 L 911.5 712 L 912.5 710 Z " /><path fill="rgb(165,194,195)" stroke="rgb(165,194,195)" stroke-width="1" opacity="1" d="M 703.5 711 L 704.5 713 L 703.5 711 Z " /><path fill="rgb(165,194,195)" stroke="rgb(165,194,195)" stroke-width="1" opacity="1" d="M 706.5 716 L 707.5 718 L 706.5 716 Z " /><path fill="rgb(165,194,195)" stroke="rgb(165,194,195)" stroke-width="1" opacity="1" d="M 746.5 716 L 747.5 718 L 746.5 716 Z " /><path fill="rgb(165,194,195)" stroke="rgb(165,194,195)" stroke-width="1" opacity="1" d="M 133.5 717 L 131.5 720 L 133.5 717 Z " /><path fill="rgb(165,194,195)" stroke="rgb(165,194,195)" stroke-width="1" opacity="1" d="M 280.5 717 L 281 719.5 L 280 719.5 L 280.5 717 Z " /><path fill="rgb(165,194,195)" stroke="rgb(165,194,195)" stroke-width="1" opacity="1" d="M 650.5 719 L 651.5 721 L 650.5 719 Z " /><path fill="rgb(165,194,195)" stroke="rgb(165,194,195)" stroke-width="1" opacity="1" d="M 695.5 719 L 696.5 721 L 695.5 719 Z " /><path fill="rgb(165,194,195)" stroke="rgb(165,194,195)" stroke-width="1" opacity="1" d="M 208.5 720 L 259 720 L 259 743.5 L 258 743.5 L 258 721 L 208.5 721 L 208.5 720 Z " /><path fill="rgb(165,194,195)" stroke="rgb(165,194,195)" stroke-width="1" opacity="1" d="M 709.5 721 L 710.5 723 L 709.5 721 Z " /><path fill="rgb(165,194,195)" stroke="rgb(165,194,195)" stroke-width="1" opacity="1" d="M 122.5 722 L 125 722.5 L 122.5 723 L 122.5 722 Z " /><path fill="rgb(165,194,195)" stroke="rgb(165,194,195)" stroke-width="1" opacity="1" d="M 346.5 722 L 392 722.5 L 346.5 723 L 346.5 722 Z " /><path fill="rgb(165,194,195)" stroke="rgb(165,194,195)" stroke-width="1" opacity="1" d="M 458.5 722 L 459 725.5 L 458 725.5 L 458.5 722 Z " /><path fill="rgb(165,194,195)" stroke="rgb(165,194,195)" stroke-width="1" opacity="1" d="M 279.5 723 L 280 728.5 L 279 728.5 L 279.5 723 Z " /><path fill="rgb(165,194,195)" stroke="rgb(165,194,195)" stroke-width="1" opacity="1" d="M 584.5 723 L 585 727.5 L 584 727.5 L 584.5 723 Z " /><path fill="rgb(165,194,195)" stroke="rgb(165,194,195)" stroke-width="1" opacity="1" d="M 306.5 724 L 307 726.5 L 306 726.5 L 306.5 724 Z " /><path fill="rgb(165,194,195)" stroke="rgb(165,194,195)" stroke-width="1" opacity="1" d="M 712.5 726 L 713.5 728 L 712.5 726 Z " /><path fill="rgb(165,194,195)" stroke="rgb(165,194,195)" stroke-width="1" opacity="1" d="M 158.5 727 L 157.5 729 L 158.5 727 Z " /><path fill="rgb(165,194,195)" stroke="rgb(165,194,195)" stroke-width="1" opacity="1" d="M 279.5 737 L 280 742.5 L 279 742.5 L 279.5 737 Z " /><path fill="rgb(165,194,195)" stroke="rgb(165,194,195)" stroke-width="1" opacity="1" d="M 306.5 739 L 307 741.5 L 306 741.5 L 306.5 739 Z " /><path fill="rgb(165,194,195)" stroke="rgb(165,194,195)" stroke-width="1" opacity="1" d="M 584.5 739 L 585 743.5 L 584 743.5 L 584.5 739 Z " /><path fill="rgb(165,194,195)" stroke="rgb(165,194,195)" stroke-width="1" opacity="1" d="M 458.5 740 L 459 743.5 L 458 743.5 L 458.5 740 Z " /><path fill="rgb(165,194,195)" stroke="rgb(165,194,195)" stroke-width="1" opacity="1" d="M 874.5 740 L 882 740.5 L 874.5 741 L 874.5 740 Z " /><path fill="rgb(165,194,195)" stroke="rgb(165,194,195)" stroke-width="1" opacity="1" d="M 868.5 741 L 871 741.5 L 868.5 742 L 868.5 741 Z " /><path fill="rgb(165,194,195)" stroke="rgb(165,194,195)" stroke-width="1" opacity="1" d="M 137.5 742 L 139 744.5 L 137 743.5 L 137.5 742 Z " /><path fill="rgb(165,194,195)" stroke="rgb(165,194,195)" stroke-width="1" opacity="1" d="M 619.5 742 L 620 793 L 629.5 793 L 630 792.5 L 630 757.5 L 631 757.5 L 631 793.5 L 630.5 794 L 619 794 L 619.5 742 Z " /><path fill="rgb(165,194,195)" stroke="rgb(165,194,195)" stroke-width="1" opacity="1" d="M 737.5 742 L 738 793 L 747.5 793 L 748 792.5 L 748 754.5 L 750 755.5 L 749 757.5 L 749 794 L 737.5 794 L 737 793.5 L 737.5 742 Z " /><path fill="rgb(165,194,195)" stroke="rgb(165,194,195)" stroke-width="1" opacity="1" d="M 795.5 742 L 796 794 L 784.5 794 L 784 793.5 L 784 757.5 L 783 755.5 L 785 754.5 L 785 792.5 L 785.5 793 L 795 793 L 795.5 742 Z " /><path fill="rgb(165,194,195)" stroke="rgb(165,194,195)" stroke-width="1" opacity="1" d="M 971.5 742 L 972.5 744 L 971.5 742 Z " /><path fill="rgb(165,194,195)" stroke="rgb(165,194,195)" stroke-width="1" opacity="1" d="M 993.5 742 L 994 777.5 L 992 776.5 L 993 775.5 L 993.5 742 Z " /><path fill="rgb(165,194,195)" stroke="rgb(165,194,195)" stroke-width="1" opacity="1" d="M 635.5 743 L 636.5 745 L 635.5 743 Z " /><path fill="rgb(165,194,195)" stroke="rgb(165,194,195)" stroke-width="1" opacity="1" d="M 892.5 743 L 895 744.5 L 893.5 744 L 892.5 743 Z " /><path fill="rgb(165,194,195)" stroke="rgb(165,194,195)" stroke-width="1" opacity="1" d="M 98.5 745 L 99 791.5 L 98 791.5 L 98.5 745 Z " /><path fill="rgb(165,194,195)" stroke="rgb(165,194,195)" stroke-width="1" opacity="1" d="M 896.5 745 L 897.5 747 L 896.5 745 Z " /><path fill="rgb(165,194,195)" stroke="rgb(165,194,195)" stroke-width="1" opacity="1" d="M 974.5 747 L 975.5 749 L 974.5 747 Z " /><path fill="rgb(165,194,195)" stroke="rgb(165,194,195)" stroke-width="1" opacity="1" d="M 140.5 748 L 141.5 750 L 140.5 748 Z " /><path fill="rgb(165,194,195)" stroke="rgb(165,194,195)" stroke-width="1" opacity="1" d="M 638.5 748 L 639.5 750 L 638.5 748 Z " /><path fill="rgb(165,194,195)" stroke="rgb(165,194,195)" stroke-width="1" opacity="1" d="M 855.5 750 L 854.5 752 L 855.5 750 Z " /><path fill="rgb(165,194,195)" stroke="rgb(165,194,195)" stroke-width="1" opacity="1" d="M 895.5 750 L 890.5 756 L 895.5 750 Z " /><path fill="rgb(165,194,195)" stroke="rgb(165,194,195)" stroke-width="1" opacity="1" d="M 921.5 752 L 922 761.5 L 921 761.5 L 921.5 752 Z " /><path fill="rgb(165,194,195)" stroke="rgb(165,194,195)" stroke-width="1" opacity="1" d="M 143.5 753 L 144.5 755 L 143.5 753 Z " /><path fill="rgb(165,194,195)" stroke="rgb(165,194,195)" stroke-width="1" opacity="1" d="M 868.5 753 L 864.5 758 L 868.5 753 Z " /><path fill="rgb(165,194,195)" stroke="rgb(165,194,195)" stroke-width="1" opacity="1" d="M 887.5 753 L 888.5 755 L 887.5 753 Z " /><path fill="rgb(165,194,195)" stroke="rgb(165,194,195)" stroke-width="1" opacity="1" d="M 312.5 756 L 313.5 758 L 312.5 756 Z " /><path fill="rgb(165,194,195)" stroke="rgb(165,194,195)" stroke-width="1" opacity="1" d="M 967.5 757 L 968.5 759 L 967.5 757 Z " /><path fill="rgb(165,194,195)" stroke="rgb(165,194,195)" stroke-width="1" opacity="1" d="M 146.5 758 L 147.5 760 L 146.5 758 Z " /><path fill="rgb(165,194,195)" stroke="rgb(165,194,195)" stroke-width="1" opacity="1" d="M 969.5 760 L 970.5 762 L 969.5 760 Z " /><path fill="rgb(165,194,195)" stroke="rgb(165,194,195)" stroke-width="1" opacity="1" d="M 982.5 760 L 983.5 762 L 982.5 760 Z " /><path fill="rgb(165,194,195)" stroke="rgb(165,194,195)" stroke-width="1" opacity="1" d="M 633.5 761 L 634.5 763 L 633.5 761 Z " /><path fill="rgb(165,194,195)" stroke="rgb(165,194,195)" stroke-width="1" opacity="1" d="M 646.5 761 L 647.5 763 L 646.5 761 Z " /><path fill="rgb(165,194,195)" stroke="rgb(165,194,195)" stroke-width="1" opacity="1" d="M 840.5 762 L 841 773 L 818 772.5 L 840 772 L 840.5 762 Z " /><path fill="rgb(165,194,195)" stroke="rgb(165,194,195)" stroke-width="1" opacity="1" d="M 149.5 763 L 150.5 765 L 149.5 763 Z " /><path fill="rgb(165,194,195)" stroke="rgb(165,194,195)" stroke-width="1" opacity="1" d="M 319.5 763 L 320.5 765 L 319.5 763 Z " /><path fill="rgb(165,194,195)" stroke="rgb(165,194,195)" stroke-width="1" opacity="1" d="M 879.5 763 L 880 773 L 889 773 L 889 781.5 L 887 782.5 L 888 781.5 L 888 774 L 879 774 L 879.5 763 Z " /><path fill="rgb(165,194,195)" stroke="rgb(165,194,195)" stroke-width="1" opacity="1" d="M 899.5 763 L 900 789.5 L 898 790.5 L 899 789.5 L 899.5 763 Z " /><path fill="rgb(165,194,195)" stroke="rgb(165,194,195)" stroke-width="1" opacity="1" d="M 861.5 765 L 862 770.5 L 861 770.5 L 861.5 765 Z " /><path fill="rgb(165,194,195)" stroke="rgb(165,194,195)" stroke-width="1" opacity="1" d="M 972.5 765 L 973.5 767 L 972.5 765 Z " /><path fill="rgb(165,194,195)" stroke="rgb(165,194,195)" stroke-width="1" opacity="1" d="M 985.5 765 L 986.5 767 L 985.5 765 Z " /><path fill="rgb(165,194,195)" stroke="rgb(165,194,195)" stroke-width="1" opacity="1" d="M 649.5 766 L 650.5 768 L 649.5 766 Z " /><path fill="rgb(165,194,195)" stroke="rgb(165,194,195)" stroke-width="1" opacity="1" d="M 152.5 768 L 153.5 770 L 152.5 768 Z " /><path fill="rgb(165,194,195)" stroke="rgb(165,194,195)" stroke-width="1" opacity="1" d="M 208.5 768 L 265 768 L 265 791.5 L 264 791.5 L 264 769 L 208.5 769 L 208.5 768 Z " /><path fill="rgb(165,194,195)" stroke="rgb(165,194,195)" stroke-width="1" opacity="1" d="M 467.5 768 L 468.5 770 L 467.5 768 Z " /><path fill="rgb(165,194,195)" stroke="rgb(165,194,195)" stroke-width="1" opacity="1" d="M 333.5 770 L 336 770.5 L 333.5 771 L 333.5 770 Z " /><path fill="rgb(165,194,195)" stroke="rgb(165,194,195)" stroke-width="1" opacity="1" d="M 351.5 770 L 354 770.5 L 351.5 771 L 351.5 770 Z " /><path fill="rgb(165,194,195)" stroke="rgb(165,194,195)" stroke-width="1" opacity="1" d="M 341.5 771 L 345 771.5 L 341.5 772 L 341.5 771 Z " /><path fill="rgb(165,194,195)" stroke="rgb(165,194,195)" stroke-width="1" opacity="1" d="M 291.5 772 L 292.5 774 L 291.5 772 Z " /><path fill="rgb(165,194,195)" stroke="rgb(165,194,195)" stroke-width="1" opacity="1" d="M 470.5 772 L 471.5 774 L 470.5 772 Z " /><path fill="rgb(165,194,195)" stroke="rgb(165,194,195)" stroke-width="1" opacity="1" d="M 572.5 772 L 571.5 774 L 572.5 772 Z " /><path fill="rgb(165,194,195)" stroke="rgb(165,194,195)" stroke-width="1" opacity="1" d="M 921 772 L 944 772.5 L 922 773 L 921.5 783 L 921 772 Z " /><path fill="rgb(165,194,195)" stroke="rgb(165,194,195)" stroke-width="1" opacity="1" d="M 155.5 773 L 156.5 775 L 155.5 773 Z " /><path fill="rgb(165,194,195)" stroke="rgb(165,194,195)" stroke-width="1" opacity="1" d="M 850.5 773 L 851 775.5 L 850 775.5 L 850.5 773 Z " /><path fill="rgb(165,194,195)" stroke="rgb(165,194,195)" stroke-width="1" opacity="1" d="M 641.5 774 L 642.5 776 L 641.5 774 Z " /><path fill="rgb(165,194,195)" stroke="rgb(165,194,195)" stroke-width="1" opacity="1" d="M 654.5 774 L 657 777.5 L 656 777.5 L 654.5 774 Z " /><path fill="rgb(165,194,195)" stroke="rgb(165,194,195)" stroke-width="1" opacity="1" d="M 127.5 776 L 128.5 778 L 127.5 776 Z " /><path fill="rgb(165,194,195)" stroke="rgb(165,194,195)" stroke-width="1" opacity="1" d="M 863.5 776 L 864.5 778 L 863.5 776 Z " /><path fill="rgb(165,194,195)" stroke="rgb(165,194,195)" stroke-width="1" opacity="1" d="M 980.5 778 L 981.5 780 L 980.5 778 Z " /><path fill="rgb(165,194,195)" stroke="rgb(165,194,195)" stroke-width="1" opacity="1" d="M 644.5 779 L 645.5 781 L 644.5 779 Z " /><path fill="rgb(165,194,195)" stroke="rgb(165,194,195)" stroke-width="1" opacity="1" d="M 299.5 780 L 301.5 783 L 299.5 780 Z " /><path fill="rgb(165,194,195)" stroke="rgb(165,194,195)" stroke-width="1" opacity="1" d="M 478.5 780 L 480.5 783 L 478.5 780 Z " /><path fill="rgb(165,194,195)" stroke="rgb(165,194,195)" stroke-width="1" opacity="1" d="M 564.5 780 L 562.5 783 L 564.5 780 Z " /><path fill="rgb(165,194,195)" stroke="rgb(165,194,195)" stroke-width="1" opacity="1" d="M 704.5 780 Q 706.8 779.3 706 781.5 L 704.5 780 Z " /><path fill="rgb(165,194,195)" stroke="rgb(165,194,195)" stroke-width="1" opacity="1" d="M 853.5 782 L 854.5 784 L 853.5 782 Z " /><path fill="rgb(165,194,195)" stroke="rgb(165,194,195)" stroke-width="1" opacity="1" d="M 303.5 783 L 304.5 785 L 303.5 783 Z " /><path fill="rgb(165,194,195)" stroke="rgb(165,194,195)" stroke-width="1" opacity="1" d="M 560.5 783 L 559.5 785 L 560.5 783 Z " /><path fill="rgb(165,194,195)" stroke="rgb(165,194,195)" stroke-width="1" opacity="1" d="M 946.5 783 L 947 794 L 910 793.5 L 946 793 L 946.5 783 Z " /><path fill="rgb(165,194,195)" stroke="rgb(165,194,195)" stroke-width="1" opacity="1" d="M 875.5 784 L 881 784.5 L 875.5 785 L 875.5 784 Z " /><path fill="rgb(165,194,195)" stroke="rgb(165,194,195)" stroke-width="1" opacity="1" d="M 557.5 785 L 556.5 787 L 557.5 785 Z " /><path fill="rgb(165,194,195)" stroke="rgb(165,194,195)" stroke-width="1" opacity="1" d="M 855.5 785 L 858.5 789 L 855.5 785 Z " /><path fill="rgb(165,194,195)" stroke="rgb(165,194,195)" stroke-width="1" opacity="1" d="M 723.5 790 L 722.5 792 L 723.5 790 Z " /><path fill="rgb(165,194,195)" stroke="rgb(165,194,195)" stroke-width="1" opacity="1" d="M 988.5 791 L 990.5 793 L 1005 793.5 L 990.5 794 L 988.5 791 Z " /><path fill="rgb(165,194,195)" stroke="rgb(165,194,195)" stroke-width="1" opacity="1" d="M 652.5 792 L 653.5 793 L 668 793.5 L 653.5 794 L 652.5 792 Z " /><path fill="rgb(165,194,195)" stroke="rgb(165,194,195)" stroke-width="1" opacity="1" d="M 761.5 792 L 762.5 793 L 771 793.5 L 762.5 794 L 761.5 792 Z " /><path fill="rgb(165,194,195)" stroke="rgb(165,194,195)" stroke-width="1" opacity="1" d="M 361.5 793 L 364 793.5 L 361.5 794 L 361.5 793 Z " /><path fill="rgb(165,194,195)" stroke="rgb(165,194,195)" stroke-width="1" opacity="1" d="M 504.5 793 L 507 793.5 L 504.5 794 L 504.5 793 Z " /><path fill="rgb(165,194,195)" stroke="rgb(165,194,195)" stroke-width="1" opacity="1" d="M 536.5 793 L 539 793.5 L 536.5 794 L 536.5 793 Z " /><path fill="rgb(165,194,195)" stroke="rgb(165,194,195)" stroke-width="1" opacity="1" d="M 679.5 793 L 690 793.5 L 679.5 794 L 679.5 793 Z " /><path fill="rgb(165,194,195)" stroke="rgb(165,194,195)" stroke-width="1" opacity="1" d="M 807.5 793 L 843 793.5 L 807.5 794 L 807.5 793 Z " /><path fill="rgb(165,194,195)" stroke="rgb(165,194,195)" stroke-width="1" opacity="1" d="M 956.5 793 L 967 793.5 L 956.5 794 L 956.5 793 Z " /><path fill="rgb(165,194,195)" stroke="rgb(165,194,195)" stroke-width="1" opacity="1" d="M 331.5 794 L 335 794.5 L 331.5 795 L 331.5 794 Z " /><path fill="rgb(165,194,195)" stroke="rgb(165,194,195)" stroke-width="1" opacity="1" d="M 351.5 794 L 357 794.5 L 351.5 795 L 351.5 794 Z " /><path fill="rgb(165,194,195)" stroke="rgb(165,194,195)" stroke-width="1" opacity="1" d="M 510.5 794 L 514 794.5 L 510.5 795 L 510.5 794 Z " /><path fill="rgb(165,194,195)" stroke="rgb(165,194,195)" stroke-width="1" opacity="1" d="M 529.5 794 L 533 794.5 L 529.5 795 L 529.5 794 Z " /><path fill="rgb(165,194,195)" stroke="rgb(165,194,195)" stroke-width="1" opacity="1" d="M 705.5 794 L 709 794.5 L 705.5 795 L 705.5 794 Z " /><path fill="rgb(165,194,195)" stroke="rgb(165,194,195)" stroke-width="1" opacity="1" d="M 713.5 794 L 717 794.5 L 713.5 795 L 713.5 794 Z " /><path fill="rgb(165,194,195)" stroke="rgb(165,194,195)" stroke-width="1" opacity="1" d="M 871.5 794 L 875 794.5 L 871.5 795 L 871.5 794 Z " /><path fill="rgb(165,194,195)" stroke="rgb(165,194,195)" stroke-width="1" opacity="1" d="M 880.5 794 L 886 794.5 L 880.5 795 L 880.5 794 Z " /><path fill="rgb(254,254,254)" stroke="rgb(254,254,254)" stroke-width="1" opacity="1" d="M 122.5 405 L 137.5 405 L 138.5 406 L 146.5 406 L 155.5 408 Q 168 411.5 176 419.5 L 158.5 439 L 146.5 431 L 139.5 429 L 128.5 428 L 117.5 430 L 110.5 433 L 100 442.5 L 95 451.5 L 93 459.5 L 93 474.5 Q 95.8 489.2 105.5 497 L 118.5 504 L 137.5 505 L 148.5 502 L 155 498.5 L 155 480.5 L 153.5 479 L 133 479 L 133 456 L 179 456 L 179 516.5 L 166.5 523 L 150.5 527 Q 145 525.5 143.5 528 L 118.5 528 Q 92.3 523.7 79 506.5 Q 71.2 497.3 68 483.5 L 67 478.5 L 67 454.5 Q 71.2 433.2 84.5 421 L 99.5 411 L 110.5 407 L 121.5 406 L 122.5 405 Z " /><path fill="rgb(254,254,254)" stroke="rgb(254,254,254)" stroke-width="1" opacity="1" d="M 360.5 405 L 374.5 405 L 375.5 406 L 386.5 407 Q 403.3 411.7 414 422.5 Q 424.5 433 429 449.5 L 430 454.5 L 430 478.5 Q 425.3 502.3 409.5 515 Q 399.1 523.6 383.5 527 L 378.5 528 L 356.5 528 L 340.5 524 Q 328.3 519.2 320 510.5 Q 310.4 500.6 306 485.5 L 304 475.5 L 304 458.5 L 306 447.5 L 311 435.5 Q 316.6 425.1 325.5 418 L 339.5 410 L 352.5 406 Q 358.8 407.8 360.5 405 Z " /><path fill="rgb(254,254,254)" stroke="rgb(254,254,254)" stroke-width="1" opacity="1" d="M 202 408 L 254.5 408 Q 256.3 410.8 262.5 409 Q 279.2 411.8 287 423.5 L 291 432.5 L 292 447.5 L 290 456.5 L 286 464.5 L 280.5 470 Q 275.4 474.8 267 475 L 267 477.5 L 296 524.5 L 265 525 L 240.5 478 L 228.5 478 L 228 478.5 L 228 525 L 202 525 L 202 408 Z M 228 429 L 228 457 L 252 457 L 261 454 L 265 449 Q 267 440 264 437 Q 261 432 255 430 L 228 429 Z " /><path fill="rgb(254,254,254)" stroke="rgb(254,254,254)" stroke-width="1" opacity="1" d="M 450 408 L 528.5 408 L 529 408.5 L 529 431 L 476.5 431 L 475 432.5 L 475 454 L 526 454 L 526 477 L 476.5 477 L 475 478.5 L 475 502 L 532 502 L 532 525 L 450 525 L 450 408 Z " /><path fill="rgb(254,254,254)" stroke="rgb(254,254,254)" stroke-width="1" opacity="1" d="M 554 408 L 588.5 408 L 590 409.5 L 638.5 490 L 640 488.5 L 640 408 L 664.5 408 L 665 408.5 L 665 525 L 631.5 525 L 630 523.5 L 581 442 L 579 442.5 L 579 524.5 L 578.5 525 L 554 525 L 554 408 Z " /><path fill="rgb(254,254,254)" stroke="rgb(254,254,254)" stroke-width="1" opacity="1" d="M 691 408 L 769.5 408 L 770 408.5 L 770 431 L 717.5 431 L 716 432.5 L 716 454 L 767 454 L 767 477 L 717.5 477 L 716 478.5 L 716 502 L 773 502 L 773 525 L 691 525 L 691 408 Z " /><path fill="rgb(254,254,254)" stroke="rgb(254,254,254)" stroke-width="1" opacity="1" d="M 593.5 538 L 608.5 539 L 620.5 542 Q 637.3 548.3 647 561.5 Q 653.8 570.2 657 582.5 L 659 603.5 L 658 604.5 L 658 613.5 L 654 626.5 Q 647.9 640.4 636.5 649 Q 626.9 656.4 613.5 660 L 593.5 662 L 592.5 661 L 582.5 661 L 570.5 658 Q 556.4 652.6 547 642.5 Q 538.2 632.8 534 618.5 L 532 607.5 L 532 592.5 L 536 575.5 Q 541.1 562.6 550.5 554 Q 559 546.5 570.5 542 L 582.5 539 L 592.5 539 L 593.5 538 Z " /><path fill="rgb(254,254,254)" stroke="rgb(254,254,254)" stroke-width="1" opacity="1" d="M 834.5 538 Q 872.7 537.8 889 559.5 Q 896.2 568.3 900 580.5 L 902 590.5 L 902 609.5 L 900 619.5 L 894 633.5 L 881.5 648 Q 871.7 656.2 857.5 660 L 844.5 661 L 843.5 662 L 834.5 662 L 833.5 661 L 820.5 660 L 811.5 657 Q 797.2 650.8 788 639.5 Q 780.6 629.9 777 616.5 L 776 611.5 L 776 589.5 Q 780.5 564 797.5 551 L 811.5 543 L 825.5 539 L 833.5 539 L 834.5 538 Z " /><path fill="rgb(254,254,254)" stroke="rgb(254,254,254)" stroke-width="1" opacity="1" d="M 972.5 538 L 991.5 539 L 1002.5 542 Q 1019.3 548.3 1029 561.5 L 1038 578.5 L 1041 594.5 L 1041 606.5 L 1038 621.5 L 1032 634.5 L 1017.5 650 L 996.5 660 L 983.5 661 L 982.5 662 L 972.5 662 L 952.5 658 L 940.5 652 L 931 645 L 923 634.5 L 918 624.5 L 914 606.5 L 914 593.5 L 918 575.5 Q 923.4 562.9 932.5 554 Q 941 546.5 952.5 542 L 972.5 538 Z " /><path fill="rgb(254,254,254)" stroke="rgb(254,254,254)" stroke-width="1" opacity="1" d="M 73 541 L 111.5 541 L 112 543.5 L 134 603.5 L 138 618 Q 141 619.3 140 615.5 L 163 550.5 L 167.5 541 L 204.5 541 L 205 541.5 L 205 659 L 180.5 659 L 180 658.5 L 180 568.5 L 179 568.5 L 149 657.5 L 147.5 659 L 129.5 659 L 128 657.5 L 114 615.5 L 114 612.5 L 100 570.5 L 98.5 569 L 98 659 L 73.5 659 L 73 658.5 L 73 541 Z " /><path fill="rgb(254,254,254)" stroke="rgb(254,254,254)" stroke-width="1" opacity="1" d="M 231 541 L 309.5 541 L 310 541.5 L 310 565 L 256 565 L 256 587 L 307 587 L 307 611 L 256 611 L 256 635 L 313 635 L 313 659 L 231 659 L 231 541 Z " /><path fill="rgb(254,254,254)" stroke="rgb(254,254,254)" stroke-width="1" opacity="1" d="M 324 541 L 416.5 541 L 417 541.5 L 417 564 L 383 564 L 383 658.5 L 382.5 659 L 358 659 L 358 564.5 L 357.5 564 L 324 564 L 324 541 Z " /><path fill="rgb(254,254,254)" stroke="rgb(254,254,254)" stroke-width="1" opacity="1" d="M 431 541 L 479.5 541 L 480.5 542 L 489.5 542 Q 506.8 544.8 515 556.5 L 520 570.5 L 520 582.5 Q 517.5 597 507.5 604 L 495 609.5 L 524 659 L 494.5 659 L 493 657.5 L 468.5 611 L 457.5 611 L 456 612.5 L 456 659 L 431 659 L 431 541 Z M 456 563 L 456 590 L 482 590 L 488 588 Q 492 585 494 579 L 492 570 Q 488 565 482 563 L 456 563 Z " /><path fill="rgb(254,254,254)" stroke="rgb(254,254,254)" stroke-width="1" opacity="1" d="M 677 541 L 724.5 541 L 725.5 542 L 734.5 542 Q 748.7 544.3 757 552.5 Q 766.8 562.2 765 583.5 Q 762.8 596.8 754.5 604 L 746.5 609 L 735.5 612 L 702 613 L 702 659 L 677 659 L 677 541 Z M 702 563 L 702 591 L 727 591 L 734 588 Q 738 585 739 579 Q 739 572 736 569 Q 732 564 726 563 L 702 563 Z " /><path fill="rgb(254,254,254)" stroke="rgb(254,254,254)" stroke-width="1" opacity="1" d="M 1060 541 L 1084.5 541 L 1085 541.5 L 1085 635 L 1134 635 L 1134 659 L 1060 659 L 1060 541 Z " /><path fill="rgb(254,254,254)" stroke="rgb(254,254,254)" stroke-width="1" opacity="1" d="M 331.5 672 L 355.5 672 L 366.5 674 Q 380.6 677.4 389 686.5 L 371.5 706 Q 361.3 693.2 336.5 695 Q 321.7 697.7 314 707.5 L 308 717.5 L 306 724.5 L 306 741.5 Q 309.2 757.3 320.5 765 L 333.5 771 L 344.5 772 L 345.5 771 L 353.5 771 L 367 766 L 367 746 L 346 746 L 346 723 L 392 723 L 392 784 Q 381 789.8 366.5 793 L 351.5 794 L 350.5 795 L 335.5 795 L 334.5 794 L 323.5 793 L 312.5 789 Q 301.1 783.4 293 774.5 Q 285.9 766.1 282 754.5 L 280 746.5 L 279 729.5 L 280 728.5 L 281 715.5 L 285 704.5 Q 291.2 692.2 301.5 684 L 313.5 677 L 331.5 672 Z " /><path fill="rgb(254,254,254)" stroke="rgb(254,254,254)" stroke-width="1" opacity="1" d="M 510.5 672 L 532.5 672 L 545.5 675 Q 562.9 681.1 573 694.5 Q 579.8 703.2 583 715.5 L 584 727.5 L 585 728.5 L 585 738.5 L 581 757.5 Q 575.6 771.1 565.5 780 Q 555.4 788.9 540.5 793 L 529.5 794 L 528.5 795 L 514.5 795 L 493.5 790 Q 480.5 784.5 472 774.5 Q 464 765 460 751.5 L 459 740.5 L 458 739.5 L 458 726.5 L 461 711.5 L 466 700.5 L 480.5 684 L 492.5 677 L 510.5 672 Z " /><path fill="rgb(254,254,254)" stroke="rgb(254,254,254)" stroke-width="1" opacity="1" d="M 73 675 L 129.5 675 Q 130.8 677.2 135.5 676 Q 149.9 679.1 157 689.5 L 162 702.5 L 162 717.5 Q 159.3 730.3 150.5 737 L 137 742 L 166 792 L 136.5 792 L 135 790.5 L 112 745 L 98.5 745 L 98 745.5 L 98 792 L 73 792 L 73 675 Z M 98 696 L 98 723 L 125 723 L 132 720 L 136 713 Q 137 706 134 703 Q 130 697 123 696 L 98 696 Z " /><path fill="rgb(254,254,254)" stroke="rgb(254,254,254)" stroke-width="1" opacity="1" d="M 182 675 L 260.5 675 L 261 675.5 L 261 698 L 207 698 L 207 719.5 L 208.5 721 L 258 721 L 258 744 L 207 744 L 207 767.5 L 208.5 769 L 264 769 L 264 791.5 L 263.5 792 L 182 792 L 182 675 Z " /><path fill="rgb(254,254,254)" stroke="rgb(254,254,254)" stroke-width="1" opacity="1" d="M 415 675 L 439.5 675 L 440 675.5 L 440 792 L 415.5 792 L 415 791.5 L 415 675 Z " /><path fill="rgb(254,254,254)" stroke="rgb(254,254,254)" stroke-width="1" opacity="1" d="M 636 679 L 645.5 679 L 646 680.5 L 668 729.5 L 655 730 L 650.5 719 L 630.5 719 L 630 721.5 L 625.5 730 L 614 729.5 L 636 679 Z M 641 694 L 634 709 L 635 710 L 647 710 L 641 694 Z " /><path fill="rgb(254,254,254)" stroke="rgb(254,254,254)" stroke-width="1" opacity="1" d="M 674 679 L 700.5 679 Q 707.5 680.5 711 685.5 L 713 691.5 L 713 696.5 Q 712.1 703.1 707.5 706 L 702 708 L 714 730 L 701.5 730 L 701 728.5 L 691 709 Q 685.6 707.5 684 710.5 L 684 730 L 674 730 L 674 679 Z M 686 688 L 684 690 L 684 700 L 698 700 Q 702 699 701 692 Q 697 686 686 688 Z " /><path fill="rgb(254,254,254)" stroke="rgb(254,254,254)" stroke-width="1" opacity="1" d="M 721 679 L 736.5 679 L 737 680.5 L 758.5 714 L 759 679 L 769.5 679 L 770 679.5 L 770 730 L 755.5 730 L 754 728.5 L 732.5 694 L 732 730 L 721.5 730 L 721 729.5 L 721 679 Z " /><path fill="rgb(254,254,254)" stroke="rgb(254,254,254)" stroke-width="1" opacity="1" d="M 781 679 L 792 679 L 792 698 L 813.5 698 L 815 696.5 L 815 679 L 824.5 679 L 825 679.5 L 825 730 L 815 730 L 815 708 L 792 708 L 792 730 L 781 730 L 781 679 Z " /><path fill="rgb(254,254,254)" stroke="rgb(254,254,254)" stroke-width="1" opacity="1" d="M 837 679 L 871.5 679 L 872 679.5 L 872 689 L 848 689 L 848 699 L 870 699 L 870 709 L 848 709 L 848 720 L 873 720 L 873 730 L 837 730 L 837 679 Z " /><path fill="rgb(254,254,254)" stroke="rgb(254,254,254)" stroke-width="1" opacity="1" d="M 883 679 L 899.5 679 L 900 680.5 L 911.5 712 L 924.5 679 L 940.5 679 L 941 679.5 L 941 730 L 930.5 730 L 930 729.5 L 930 691.5 L 929 691.5 L 916 730 L 907.5 730 L 907 728.5 L 895 691 L 893 691.5 L 893 729.5 L 892.5 730 L 883 730 L 883 679 Z " /><path fill="rgb(254,254,254)" stroke="rgb(254,254,254)" stroke-width="1" opacity="1" d="M 871.5 741 Q 890.4 738.6 898 747.5 L 889.5 755 Q 885.5 749 873.5 751 Q 867 752.5 864 757.5 L 861 765.5 L 861 770.5 Q 862.6 779.4 869.5 783 L 875.5 785 L 880.5 785 L 889 781.5 L 889 773 L 880 773 L 880 763 L 899 763 L 899 789.5 L 888.5 794 L 875.5 795 Q 874.3 792.7 869.5 794 L 860.5 790 L 855 784.5 L 850 772.5 L 850 762.5 Q 852.5 752 859.5 746 L 871.5 741 Z " /><path fill="rgb(254,254,254)" stroke="rgb(254,254,254)" stroke-width="1" opacity="1" d="M 620 742 L 634.5 742 L 635 743.5 L 656.5 778 L 657 742 L 667.5 742 L 668 742.5 L 668 793 L 653.5 793 L 652 791.5 L 630.5 757 L 630 793 L 620.5 793 L 620 792.5 L 620 742 Z " /><path fill="rgb(254,254,254)" stroke="rgb(254,254,254)" stroke-width="1" opacity="1" d="M 679 742 L 689.5 742 L 690 742.5 L 690 793 L 679.5 793 L 679 792.5 L 679 742 Z " /><path fill="rgb(254,254,254)" stroke="rgb(254,254,254)" stroke-width="1" opacity="1" d="M 716 742 L 726.5 742 L 727 742.5 L 727 782.5 L 721.5 792 L 717.5 794 L 709.5 795 L 700.5 792 L 697 788.5 L 695 783.5 L 704.5 781 Q 705.5 786 712.5 785 L 716 780.5 L 716 742 Z " /><path fill="rgb(254,254,254)" stroke="rgb(254,254,254)" stroke-width="1" opacity="1" d="M 738 742 L 753.5 742 L 755 743.5 L 766.5 776 L 776 748.5 L 779.5 742 L 794.5 742 L 795 742.5 L 795 793 L 785.5 793 L 785 792.5 L 785 754.5 L 783 755.5 L 771 793 L 762.5 793 L 761 791.5 L 754 767.5 L 748.5 754 L 748 793 L 738.5 793 L 738 792.5 L 738 742 Z " /><path fill="rgb(254,254,254)" stroke="rgb(254,254,254)" stroke-width="1" opacity="1" d="M 807 742 L 841.5 742 L 842 742.5 L 842 752 L 818 752 L 818 762 L 840 762 L 840 772 L 818 772 L 818 783 L 843 783 L 843 793 L 807 793 L 807 742 Z " /><path fill="rgb(254,254,254)" stroke="rgb(254,254,254)" stroke-width="1" opacity="1" d="M 910 742 L 944.5 742 L 945 742.5 L 945 752 L 921 752 L 921 762 L 944 762 L 944 772 L 921 772 L 921 783 L 946 783 L 946 793 L 910 793 L 910 742 Z " /><path fill="rgb(254,254,254)" stroke="rgb(254,254,254)" stroke-width="1" opacity="1" d="M 956 742 L 970.5 742 L 973 744.5 L 993.5 778 L 994 742 L 1004.5 742 L 1005 742.5 L 1005 793 L 990.5 793 L 988 790.5 L 967.5 757 L 967 793 L 956.5 793 L 956 792.5 L 956 742 Z " /></svg>