<svg xmlns="http://www.w3.org/2000/svg" xmlns:xlink="http://www.w3.org/1999/xlink" width="290" height="106.032" viewBox="0 0 290 106.032">
  <defs>
    <clipPath id="clip-path">
      <path id="Path_1905" data-name="Path 1905" d="M0-6.48H290V-112.512H0Z" transform="translate(0 112.512)" fill="#fff"/>
    </clipPath>
  </defs>
  <g id="logo_groene-metropool-regio" clip-path="url(#clip-path)">
    <g id="Group_2901" data-name="Group 2901" transform="translate(1.719 72.377)">
      <path id="Path_1898" data-name="Path 1898" d="M0-2.007H7.057v-12.8H10.54l6.695,12.8h8.459L17.551-15.532a7.942,7.942,0,0,0,5.157-3.008,9.4,9.4,0,0,0,1.764-5.768A10.11,10.11,0,0,0,23.5-28.99a7.9,7.9,0,0,0-2.624-2.986,11,11,0,0,0-3.845-1.583,21.869,21.869,0,0,0-4.637-.475H0ZM7.057-28.063h4.614a14.39,14.39,0,0,1,1.945.136,5.644,5.644,0,0,1,1.764.52A3.325,3.325,0,0,1,16.647-26.3a3.38,3.38,0,0,1,.5,1.945,3.233,3.233,0,0,1-.565,2.036,3.325,3.325,0,0,1-1.425,1.063,6.306,6.306,0,0,1-1.923.407q-1.063.068-2.013.068H7.057ZM29.584-2.007H52.157V-8.521H36.641v-6.514H50.528v-6.514H36.641V-27.52h14.7v-6.514H29.584Zm57.222-19H74.276v6.514h5.745v5.2a14.951,14.951,0,0,1-2.669,1.063,13.488,13.488,0,0,1-3.981.52,10.464,10.464,0,0,1-4.094-.769,9.174,9.174,0,0,1-3.144-2.149,9.48,9.48,0,0,1-2.013-3.257,11.739,11.739,0,0,1-.7-4.139,11.8,11.8,0,0,1,.7-4.116,9.447,9.447,0,0,1,2.013-3.28,9.2,9.2,0,0,1,3.144-2.149,10.481,10.481,0,0,1,4.094-.769,11.606,11.606,0,0,1,4.524.769A9.928,9.928,0,0,1,81.152-25.3l4.976-5.428a13.861,13.861,0,0,0-5.677-3.189,25.615,25.615,0,0,0-7.079-.927,19.73,19.73,0,0,0-6.921,1.176,15.843,15.843,0,0,0-5.473,3.37,15.287,15.287,0,0,0-3.6,5.315,18.091,18.091,0,0,0-1.289,6.966,18.088,18.088,0,0,0,1.289,6.966,15.278,15.278,0,0,0,3.6,5.315,15.829,15.829,0,0,0,5.473,3.37,19.731,19.731,0,0,0,6.921,1.176,33.143,33.143,0,0,0,6.921-.724,25.51,25.51,0,0,0,6.514-2.352Zm6.107,19H99.97V-34.034H92.913Zm13.05-9.047a15.279,15.279,0,0,0,3.6,5.315,15.829,15.829,0,0,0,5.474,3.37,19.723,19.723,0,0,0,6.921,1.176,19.731,19.731,0,0,0,6.921-1.176,15.838,15.838,0,0,0,5.473-3.37,15.279,15.279,0,0,0,3.6-5.315,18.087,18.087,0,0,0,1.289-6.966,18.091,18.091,0,0,0-1.289-6.966,15.287,15.287,0,0,0-3.6-5.315,15.852,15.852,0,0,0-5.473-3.37,19.73,19.73,0,0,0-6.921-1.176,19.723,19.723,0,0,0-6.921,1.176,15.843,15.843,0,0,0-5.474,3.37,15.288,15.288,0,0,0-3.6,5.315,18.092,18.092,0,0,0-1.289,6.966,18.088,18.088,0,0,0,1.289,6.966" transform="translate(0 34.848)" fill="#fff"/>
    </g>
    <g id="Group_2902" data-name="Group 2902" transform="translate(1.719 36.188)">
      <path id="Path_1899" data-name="Path 1899" d="M0-2.007H7.057V-26.57h.09l8.1,24.563h5.383L29.041-26.57h.09V-2.007h7.057V-34.034H25.558l-7.419,20.9h-.09l-7.373-20.9H0Zm42.973,0H65.545V-8.521H50.03v-6.514H63.917v-6.514H50.03V-27.52h14.7v-6.514H42.973Zm34.424,0h7.057V-27.791h9.138v-6.243H68.259v6.243H77.4Zm19.767,0h7.057v-12.8H107.7l6.695,12.8h8.459l-8.142-13.525a7.942,7.942,0,0,0,5.157-3.008,9.4,9.4,0,0,0,1.764-5.768,10.11,10.11,0,0,0-.973-4.682,7.889,7.889,0,0,0-2.624-2.986,11,11,0,0,0-3.845-1.583,21.869,21.869,0,0,0-4.637-.475H97.164Zm7.057-26.056h4.614a14.39,14.39,0,0,1,1.945.136,5.643,5.643,0,0,1,1.764.52,3.317,3.317,0,0,1,1.267,1.108,3.38,3.38,0,0,1,.5,1.945,3.237,3.237,0,0,1-.565,2.036,3.325,3.325,0,0,1-1.425,1.063,6.306,6.306,0,0,1-1.923.407q-1.063.068-2.013.068h-4.162Zm21.826,17.009a15.279,15.279,0,0,0,3.6,5.315,15.843,15.843,0,0,0,5.473,3.37,19.731,19.731,0,0,0,6.921,1.176,19.731,19.731,0,0,0,6.921-1.176,15.843,15.843,0,0,0,5.473-3.37,15.279,15.279,0,0,0,3.6-5.315,18.088,18.088,0,0,0,1.289-6.966,18.088,18.088,0,0,0-1.289-6.966,15.287,15.287,0,0,0-3.6-5.315,15.843,15.843,0,0,0-5.473-3.37,19.731,19.731,0,0,0-6.921-1.176,19.731,19.731,0,0,0-6.921,1.176,15.843,15.843,0,0,0-5.473,3.37,15.288,15.288,0,0,0-3.6,5.315,18.089,18.089,0,0,0-1.289,6.966,18.089,18.089,0,0,0,1.289,6.966m38.065,9.047h7.057V-14.492h5.157a22.006,22.006,0,0,0,4.7-.475,10.086,10.086,0,0,0,3.755-1.606,7.717,7.717,0,0,0,2.488-3.031,10.905,10.905,0,0,0,.9-4.7,10.222,10.222,0,0,0-.973-4.727,7.9,7.9,0,0,0-2.624-2.986,10.7,10.7,0,0,0-3.868-1.561,23.5,23.5,0,0,0-4.7-.452h-11.9Zm7.057-26.056h3.619a20.371,20.371,0,0,1,2.081.113,6.2,6.2,0,0,1,1.968.52,3.759,3.759,0,0,1,1.448,1.154,3.175,3.175,0,0,1,.565,1.968,3.719,3.719,0,0,1-.43,1.877,3.258,3.258,0,0,1-1.131,1.176,4.878,4.878,0,0,1-1.583.611,9.1,9.1,0,0,1-1.832.181h-4.7ZM268.151-2.007h20.13V-8.521H275.209V-34.034h-7.058Z" transform="translate(0 34.848)" fill="#fff"/>
    </g>
    <g id="Group_2903" data-name="Group 2903" transform="translate(0 0)">
      <path id="Path_1900" data-name="Path 1900" d="M-1.877-.846h-12.53V5.668h5.745v5.2a15.023,15.023,0,0,1-2.669,1.063,13.488,13.488,0,0,1-3.981.52,10.481,10.481,0,0,1-4.094-.769A9.188,9.188,0,0,1-22.55,9.536a9.466,9.466,0,0,1-2.013-3.257,11.746,11.746,0,0,1-.7-4.139,11.8,11.8,0,0,1,.7-4.116,9.424,9.424,0,0,1,2.013-3.28,9.188,9.188,0,0,1,3.144-2.149,10.481,10.481,0,0,1,4.094-.769,11.606,11.606,0,0,1,4.524.769A9.914,9.914,0,0,1-7.532-5.143l4.976-5.428a13.861,13.861,0,0,0-5.677-3.189,25.615,25.615,0,0,0-7.079-.927,19.727,19.727,0,0,0-6.921,1.176,15.843,15.843,0,0,0-5.474,3.37,15.279,15.279,0,0,0-3.6,5.315A18.088,18.088,0,0,0-32.592,2.14,18.088,18.088,0,0,0-31.3,9.106a15.279,15.279,0,0,0,3.6,5.315,15.829,15.829,0,0,0,5.474,3.37,19.727,19.727,0,0,0,6.921,1.176,33.08,33.08,0,0,0,6.921-.724,25.546,25.546,0,0,0,6.514-2.352Zm6.2,19h7.057V5.351H14.86l6.695,12.8h8.459L21.872,4.628a7.942,7.942,0,0,0,5.157-3.008,9.4,9.4,0,0,0,1.764-5.768A10.11,10.11,0,0,0,27.82-8.83,7.9,7.9,0,0,0,25.2-11.816,11.008,11.008,0,0,0,21.351-13.4a21.87,21.87,0,0,0-4.637-.475H4.32ZM11.377-7.9h4.614a14.39,14.39,0,0,1,1.945.136,5.626,5.626,0,0,1,1.764.52,3.324,3.324,0,0,1,1.267,1.108,3.38,3.38,0,0,1,.5,1.945A3.237,3.237,0,0,1,20.9-2.158a3.331,3.331,0,0,1-1.425,1.063,6.312,6.312,0,0,1-1.923.407q-1.063.068-2.013.068H11.377ZM33.2,9.106a15.279,15.279,0,0,0,3.6,5.315,15.829,15.829,0,0,0,5.473,3.37,19.723,19.723,0,0,0,6.921,1.176,19.731,19.731,0,0,0,6.921-1.176,15.837,15.837,0,0,0,5.473-3.37,15.279,15.279,0,0,0,3.6-5.315A18.088,18.088,0,0,0,66.474,2.14a18.088,18.088,0,0,0-1.289-6.966,15.279,15.279,0,0,0-3.6-5.315,15.852,15.852,0,0,0-5.473-3.37,20.952,20.952,0,0,0-13.842,0,15.843,15.843,0,0,0-5.473,3.37,15.279,15.279,0,0,0-3.6,5.315A18.088,18.088,0,0,0,31.914,2.14,18.088,18.088,0,0,0,33.2,9.106m38.336,9.047H94.112V11.639H78.6V5.125H92.483V-1.389H78.6V-7.36H93.3v-6.514H71.539Zm28.227,0h7.057v-22.8h.09l13.978,22.8h9.228V-13.874h-7.057V8.382h-.09L109.356-13.874h-9.59Zm37.137,0h22.573V11.639H143.96V5.125h13.887V-1.389H143.96V-7.36h14.7v-6.514H136.9Z" transform="translate(32.592 14.688)" fill="#fff"/>
    </g>
    <g id="Group_2904" data-name="Group 2904" transform="translate(150.194 91.16)">
      <path id="Path_1901" data-name="Path 1901" d="M0-.883H3.105V-10.914h.04L9.295-.883h4.061V-14.975H10.251v9.793h-.04L4.219-14.975H0Zm16.181,0h3.105V-14.975H16.181ZM29.4-14.975H26.292v9.037c0,.265-.01.554-.03.865a3.255,3.255,0,0,1-.169.866,1.586,1.586,0,0,1-.438.666,1.2,1.2,0,0,1-.836.27,1.363,1.363,0,0,1-.925-.359,1.333,1.333,0,0,1-.467-.875l-2.846.7a3.756,3.756,0,0,0,1.493,2.488,4.857,4.857,0,0,0,2.826.8,5.357,5.357,0,0,0,2.318-.428,3.371,3.371,0,0,0,1.364-1.135,4.228,4.228,0,0,0,.646-1.622A10.35,10.35,0,0,0,29.4-5.6ZM32.064-.883H35.17V-11.691h.04L38.772-.883h2.369l3.7-10.808h.04V-.883h3.105V-14.975H43.31l-3.264,9.2h-.04l-3.245-9.2h-4.7Zm18.908,0H60.9V-3.749H54.077V-6.616h6.111V-9.482H54.077v-2.627h6.469v-2.866H50.973ZM76.15-9.242H70.637v2.866h2.528v2.289a6.62,6.62,0,0,1-1.174.467,5.931,5.931,0,0,1-1.752.229,4.615,4.615,0,0,1-1.8-.338,4.043,4.043,0,0,1-1.383-.945,4.2,4.2,0,0,1-.886-1.433,5.17,5.17,0,0,1-.308-1.821,5.2,5.2,0,0,1,.308-1.811,4.171,4.171,0,0,1,.886-1.444,4.056,4.056,0,0,1,1.383-.945,4.615,4.615,0,0,1,1.8-.338,5.112,5.112,0,0,1,1.99.338,4.388,4.388,0,0,1,1.433,1l2.189-2.388a6.1,6.1,0,0,0-2.5-1.4,11.263,11.263,0,0,0-3.116-.408,8.682,8.682,0,0,0-3.045.517,6.975,6.975,0,0,0-2.408,1.482A6.736,6.736,0,0,0,63.2-10.994a7.95,7.95,0,0,0-.567,3.066A7.948,7.948,0,0,0,63.2-4.864a6.718,6.718,0,0,0,1.582,2.339,6.961,6.961,0,0,0,2.408,1.482,8.682,8.682,0,0,0,3.045.517,14.573,14.573,0,0,0,3.046-.319A11.217,11.217,0,0,0,76.15-1.878ZM79-.883h9.932V-3.749H82.1V-6.616h6.111V-9.482H82.1v-2.627H88.57v-2.866H79Zm12.42,0h3.105V-10.914h.04l6.15,10.031h4.06V-14.975h-3.1v9.793h-.041l-5.991-9.793H91.416Z" transform="translate(0 15.333)" fill="#fff"/>
    </g>
    <g id="Group_2905" data-name="Group 2905" transform="translate(148.741 74.328)">
      <path id="Path_1902" data-name="Path 1902" d="M0-.861H3.424L4.6-3.847h5.473L11.285-.861h3.5L8.658-14.953H6.091ZM9.016-6.474H5.573l1.711-4.378ZM16.2-.861h3.1V-6.494h1.533L23.784-.861h3.722L23.924-6.812a3.5,3.5,0,0,0,2.269-1.323,4.139,4.139,0,0,0,.777-2.538,4.444,4.444,0,0,0-.429-2.06,3.473,3.473,0,0,0-1.154-1.314,4.853,4.853,0,0,0-1.693-.7,9.609,9.609,0,0,0-2.039-.209H16.2Zm3.1-11.464h2.031a6.375,6.375,0,0,1,.856.059,2.482,2.482,0,0,1,.776.229,1.464,1.464,0,0,1,.558.488,1.485,1.485,0,0,1,.219.856,1.423,1.423,0,0,1-.249.9,1.455,1.455,0,0,1-.627.467,2.792,2.792,0,0,1-.846.18q-.468.03-.886.029H19.306ZM29.1-.861H32.2V-10.892h.04L38.394-.861h4.061V-14.953H39.349V-5.16h-.04l-5.991-9.793H29.1Zm16.222,0h3.105V-6.952h6.03V-.861h3.105V-14.953H54.456V-9.7h-6.03v-5.255H45.32Zm15.226,0h9.932V-3.727H63.651V-6.594h6.111V-9.46H63.651v-2.627H70.12v-2.866H60.546Zm12.42,0h3.105V-11.669h.04L79.673-.861h2.369l3.7-10.808h.04V-.861h3.105V-14.953H84.212l-3.265,9.2h-.04l-3.245-9.2h-4.7Z" transform="translate(0 14.953)" fill="#fff"/>
    </g>
    <g id="Group_2906" data-name="Group 2906" transform="translate(230.245 36.188)">
      <path id="Path_1903" data-name="Path 1903" d="M-.079-1.454a15.279,15.279,0,0,0,3.6,5.315,15.829,15.829,0,0,0,5.473,3.37,19.723,19.723,0,0,0,6.921,1.176,19.731,19.731,0,0,0,6.921-1.176,15.838,15.838,0,0,0,5.473-3.37,15.279,15.279,0,0,0,3.6-5.315A18.088,18.088,0,0,0,33.192-8.42,18.091,18.091,0,0,0,31.9-15.387a15.287,15.287,0,0,0-3.6-5.315,15.866,15.866,0,0,0-5.473-3.37,19.731,19.731,0,0,0-6.921-1.176,19.723,19.723,0,0,0-6.921,1.176A15.857,15.857,0,0,0,3.517-20.7a15.287,15.287,0,0,0-3.6,5.315A18.091,18.091,0,0,0-1.368-8.42,18.088,18.088,0,0,0-.079-1.454" transform="translate(1.368 25.248)" fill="#fff"/>
    </g>
    <g id="Group_2907" data-name="Group 2907" transform="translate(192.61 36.188)">
      <path id="Path_1904" data-name="Path 1904" d="M-.079-1.454a15.279,15.279,0,0,0,3.6,5.315,15.829,15.829,0,0,0,5.473,3.37,19.727,19.727,0,0,0,6.921,1.176,19.731,19.731,0,0,0,6.921-1.176,15.838,15.838,0,0,0,5.473-3.37,15.279,15.279,0,0,0,3.6-5.315A18.088,18.088,0,0,0,33.192-8.42,18.091,18.091,0,0,0,31.9-15.387a15.287,15.287,0,0,0-3.6-5.315,15.866,15.866,0,0,0-5.473-3.37,19.731,19.731,0,0,0-6.921-1.176,19.727,19.727,0,0,0-6.921,1.176A15.857,15.857,0,0,0,3.517-20.7a15.287,15.287,0,0,0-3.6,5.315A18.091,18.091,0,0,0-1.368-8.42,18.088,18.088,0,0,0-.079-1.454" transform="translate(1.368 25.248)" fill="#fff"/>
    </g>
  </g>
</svg>
